<svg width="248" height="309" viewBox="0 0 248 309" fill="none" xmlns="http://www.w3.org/2000/svg">
<path d="M10.2 309C7.5 309 5.1 308.1 3 306.3C1.2 304.2 0.3 301.8 0.3 299.1V10.2C0.3 7.49998 1.2 5.24999 3 3.44999C5.1 1.34998 7.5 0.299978 10.2 0.299978H167.7C178.5 0.299978 188.7 2.39998 198.3 6.59998C208.2 10.8 216.75 16.5 223.95 23.7C231.15 30.9 236.85 39.3 241.05 48.9C245.25 58.5 247.35 68.85 247.35 79.95V229.35C247.35 240.45 245.25 250.8 241.05 260.4C236.85 270 231.15 278.4 223.95 285.6C216.75 292.8 208.2 298.5 198.3 302.7C188.7 306.9 178.5 309 167.7 309H10.2ZM61.95 247.35H167.7C172.8 247.35 177 245.7 180.3 242.4C183.6 238.8 185.25 234.45 185.25 229.35V79.95C185.25 74.85 183.6 70.65 180.3 67.35C177 63.75 172.8 61.95 167.7 61.95H61.95V247.35Z" fill="#E1E0DF"/>
</svg>
