<svg width="248" height="309" viewBox="0 0 248 309" fill="none" xmlns="http://www.w3.org/2000/svg">
<path d="M167.7 0.299978C178.8 0.299978 189.15 2.39998 198.75 6.59998C208.35 10.8 216.75 16.5 223.95 23.7C231.15 30.9 236.85 39.3 241.05 48.9C245.25 58.5 247.35 68.85 247.35 79.95V106.05C247.35 116.85 245.25 127.2 241.05 137.1C236.85 146.7 231.15 155.1 223.95 162.3C216.75 169.5 208.35 175.2 198.75 179.4C189.15 183.6 178.8 185.7 167.7 185.7H61.95V299.1C61.95 301.8 61.05 304.2 59.25 306.3C57.45 308.1 55.2 309 52.5 309H10.2C7.5 309 5.1 308.1 3 306.3C1.2 304.2 0.3 301.8 0.3 299.1V10.2C0.3 7.49998 1.2 5.24999 3 3.44999C5.1 1.34998 7.5 0.299978 10.2 0.299978H167.7ZM185.7 79.95C185.7 74.85 183.9 70.65 180.3 67.35C177 63.75 172.8 61.95 167.7 61.95H61.95V124.05H167.7C172.8 124.05 177 122.4 180.3 119.1C183.9 115.5 185.7 111.15 185.7 106.05V79.95Z" fill="#E1E0DF"/>
</svg>
