<svg width="1265" height="86" viewBox="0 0 1265 86" fill="none" xmlns="http://www.w3.org/2000/svg">
<path d="M46.75 0.249994C49.8333 0.249994 52.7083 0.833327 55.375 1.99999C58.0417 3.16666 60.375 4.75 62.375 6.75C64.375 8.75 65.9583 11.0833 67.125 13.75C68.2917 16.4167 68.875 19.2917 68.875 22.375V29.625C68.875 32.625 68.2917 35.5 67.125 38.25C65.9583 40.9167 64.375 43.25 62.375 45.25C60.375 47.25 58.0417 48.8333 55.375 50C52.7083 51.1667 49.8333 51.75 46.75 51.75H17.375V83.25C17.375 84 17.125 84.6667 16.625 85.25C16.125 85.75 15.5 86 14.75 86H3C2.25 86 1.58333 85.75 1 85.25C0.5 84.6667 0.25 84 0.25 83.25V3C0.25 2.25 0.5 1.625 1 1.125C1.58333 0.541662 2.25 0.249994 3 0.249994H46.75ZM51.75 22.375C51.75 20.9583 51.25 19.7917 50.25 18.875C49.3333 17.875 48.1667 17.375 46.75 17.375H17.375V34.625H46.75C48.1667 34.625 49.3333 34.1667 50.25 33.25C51.25 32.25 51.75 31.0417 51.75 29.625V22.375ZM152.283 86H93.7832C93.0332 86 92.3665 85.75 91.7832 85.25C91.2832 84.6667 91.0332 84 91.0332 83.25V3C91.0332 2.25 91.2832 1.625 91.7832 1.125C92.3665 0.541662 93.0332 0.249994 93.7832 0.249994H105.408C106.158 0.249994 106.783 0.541662 107.283 1.125C107.867 1.625 108.158 2.25 108.158 3V68.875H152.283C153.033 68.875 153.658 69.1667 154.158 69.75C154.658 70.25 154.908 70.875 154.908 71.625V83.25C154.908 84 154.658 84.6667 154.158 85.25C153.658 85.75 153.033 86 152.283 86ZM220.566 0.249994C221.316 0.249994 222.025 0.499996 222.691 0.999999C223.441 1.5 223.941 2.08333 224.191 2.75L242.191 47.5C242.441 48.1667 242.65 49.0417 242.816 50.125C243.066 51.125 243.191 52 243.191 52.75V83.25C243.191 84 242.9 84.6667 242.316 85.25C241.816 85.75 241.191 86 240.441 86H228.691C227.941 86 227.275 85.75 226.691 85.25C226.191 84.6667 225.941 84 225.941 83.25V68.875H191.691V83.25C191.691 84 191.4 84.6667 190.816 85.25C190.316 85.75 189.691 86 188.941 86H177.316C176.566 86 175.9 85.75 175.316 85.25C174.816 84.6667 174.566 84 174.566 83.25V52.75C174.566 52 174.65 51.125 174.816 50.125C175.066 49.0417 175.316 48.1667 175.566 47.5L193.441 2.75C193.775 2.08333 194.275 1.5 194.941 0.999999C195.691 0.499996 196.441 0.249994 197.191 0.249994H220.566ZM192.316 51.75H225.316L211.566 17.375H206.066L192.316 51.75ZM315.85 26C315.1 26 314.433 25.75 313.85 25.25C313.35 24.6667 313.1 24 313.1 23.25V22.375C313.1 20.9583 312.641 19.7917 311.725 18.875C310.808 17.875 309.641 17.375 308.225 17.375H283.725C282.391 17.375 281.225 17.875 280.225 18.875C279.308 19.7917 278.85 20.9583 278.85 22.375V29.625C278.85 31.0417 279.308 32.25 280.225 33.25C281.225 34.1667 282.391 34.625 283.725 34.625H308.225C311.225 34.625 314.058 35.2083 316.725 36.375C319.391 37.5417 321.725 39.125 323.725 41.125C325.725 43.125 327.308 45.4583 328.475 48.125C329.641 50.7917 330.225 53.625 330.225 56.625V63.875C330.225 66.9583 329.641 69.8333 328.475 72.5C327.308 75.1667 325.725 77.5 323.725 79.5C321.725 81.5 319.391 83.0833 316.725 84.25C314.058 85.4167 311.225 86 308.225 86H283.725C280.725 86 277.891 85.4167 275.225 84.25C272.558 83.0833 270.225 81.5 268.225 79.5C266.225 77.5 264.641 75.1667 263.475 72.5C262.308 69.8333 261.725 66.9583 261.725 63.875V63C261.725 62.25 261.975 61.625 262.475 61.125C263.058 60.5417 263.725 60.25 264.475 60.25H276.1C276.85 60.25 277.475 60.5417 277.975 61.125C278.558 61.625 278.85 62.25 278.85 63V63.875C278.85 65.2917 279.308 66.5 280.225 67.5C281.225 68.4167 282.391 68.875 283.725 68.875H308.225C309.641 68.875 310.808 68.4167 311.725 67.5C312.641 66.5 313.1 65.2917 313.1 63.875V56.625C313.1 55.2083 312.641 54.0417 311.725 53.125C310.808 52.2083 309.641 51.75 308.225 51.75H283.725C280.725 51.75 277.891 51.1667 275.225 50C272.558 48.8333 270.225 47.25 268.225 45.25C266.225 43.25 264.641 40.9167 263.475 38.25C262.308 35.5 261.725 32.625 261.725 29.625V22.375C261.725 19.2917 262.308 16.4167 263.475 13.75C264.641 11.0833 266.225 8.75 268.225 6.75C270.225 4.75 272.558 3.16666 275.225 1.99999C277.891 0.833327 280.725 0.249994 283.725 0.249994H308.225C311.225 0.249994 314.058 0.833327 316.725 1.99999C319.391 3.16666 321.725 4.75 323.725 6.75C325.725 8.75 327.308 11.0833 328.475 13.75C329.641 16.4167 330.225 19.2917 330.225 22.375V23.25C330.225 24 329.975 24.6667 329.475 25.25C328.975 25.75 328.35 26 327.6 26H315.85ZM414.758 0.249994C415.508 0.249994 416.174 0.499996 416.758 0.999999C417.258 1.58333 417.508 2.25 417.508 3V83.25C417.508 84 417.258 84.625 416.758 85.125C416.174 85.7083 415.508 86 414.758 86H403.133C402.383 86 401.758 85.7083 401.258 85.125C400.674 84.625 400.383 84 400.383 83.25V29.875L390.133 46.125C389.716 46.7917 389.133 47.375 388.383 47.875C387.549 48.2917 386.758 48.5 386.008 48.5H380.508C379.758 48.5 378.966 48.2917 378.133 47.875C377.383 47.375 376.799 46.7917 376.383 46.125L366.008 29.75V83.25C366.008 84 365.758 84.625 365.258 85.125C364.674 85.7083 364.008 86 363.258 86H351.633C350.883 86 350.258 85.7083 349.758 85.125C349.174 84.625 348.883 84 348.883 83.25V3C348.883 2.25 349.174 1.58333 349.758 0.999999C350.258 0.499996 350.883 0.249994 351.633 0.249994H363.258L364.133 0.374992C364.549 0.458329 364.966 0.666665 365.383 0.999999C366.216 1.41667 366.841 1.95833 367.258 2.62499L383.258 30.25L399.258 2.62499C399.674 1.95833 400.258 1.41667 401.008 0.999999L402.008 0.499998C402.341 0.333329 402.716 0.249994 403.133 0.249994H414.758ZM482.041 0.249994C482.791 0.249994 483.499 0.499996 484.166 0.999999C484.916 1.5 485.416 2.08333 485.666 2.75L503.666 47.5C503.916 48.1667 504.124 49.0417 504.291 50.125C504.541 51.125 504.666 52 504.666 52.75V83.25C504.666 84 504.374 84.6667 503.791 85.25C503.291 85.75 502.666 86 501.916 86H490.166C489.416 86 488.749 85.75 488.166 85.25C487.666 84.6667 487.416 84 487.416 83.25V68.875H453.166V83.25C453.166 84 452.874 84.6667 452.291 85.25C451.791 85.75 451.166 86 450.416 86H438.791C438.041 86 437.374 85.75 436.791 85.25C436.291 84.6667 436.041 84 436.041 83.25V52.75C436.041 52 436.124 51.125 436.291 50.125C436.541 49.0417 436.791 48.1667 437.041 47.5L454.916 2.75C455.249 2.08333 455.749 1.5 456.416 0.999999C457.166 0.499996 457.916 0.249994 458.666 0.249994H482.041ZM453.791 51.75H486.791L473.041 17.375H467.541L453.791 51.75ZM588.615 86C587.865 86 587.199 85.75 586.615 85.25C586.115 84.6667 585.865 84 585.865 83.25V3C585.865 2.25 586.115 1.625 586.615 1.125C587.199 0.541662 587.865 0.249994 588.615 0.249994H632.365C635.365 0.249994 638.199 0.833327 640.865 1.99999C643.615 3.16666 645.99 4.75 647.99 6.75C649.99 8.75 651.574 11.0833 652.74 13.75C653.907 16.4167 654.49 19.2917 654.49 22.375V63.875C654.49 66.9583 653.907 69.8333 652.74 72.5C651.574 75.1667 649.99 77.5 647.99 79.5C645.99 81.5 643.615 83.0833 640.865 84.25C638.199 85.4167 635.365 86 632.365 86H588.615ZM602.99 68.875H632.365C633.782 68.875 634.949 68.4167 635.865 67.5C636.782 66.5 637.24 65.2917 637.24 63.875V22.375C637.24 20.9583 636.782 19.7917 635.865 18.875C634.949 17.875 633.782 17.375 632.365 17.375H602.99V68.875ZM738.898 0.249994C739.648 0.249994 740.273 0.541662 740.773 1.125C741.273 1.625 741.523 2.25 741.523 3V22.25C741.523 23 741.357 23.8333 741.023 24.75C740.69 25.6667 740.232 26.4167 739.648 27L715.898 52.375V83.375C715.898 84.0417 715.607 84.6667 715.023 85.25C714.523 85.75 713.898 86 713.148 86H701.398C700.648 86 699.982 85.75 699.398 85.25C698.898 84.6667 698.648 84.0417 698.648 83.375V52.375L674.898 27C674.315 26.4167 673.857 25.6667 673.523 24.75C673.19 23.8333 673.023 23 673.023 22.25V3C673.023 2.25 673.273 1.625 673.773 1.125C674.273 0.541662 674.898 0.249994 675.648 0.249994H687.398C688.148 0.249994 688.773 0.541662 689.273 1.125C689.857 1.625 690.148 2.25 690.148 3V15.5C690.148 16.25 690.315 17.0833 690.648 18C691.065 18.9167 691.523 19.625 692.023 20.125L707.273 36.375L722.523 20.125C723.023 19.625 723.44 18.9167 723.773 18C724.19 17.0833 724.398 16.25 724.398 15.5V3C724.398 2.25 724.648 1.625 725.148 1.125C725.732 0.541662 726.398 0.249994 727.148 0.249994H738.898ZM811.435 3C811.435 2.25 811.685 1.625 812.185 1.125C812.768 0.541662 813.435 0.249994 814.185 0.249994H825.935C826.685 0.249994 827.31 0.541662 827.81 1.125C828.393 1.625 828.685 2.25 828.685 3V83.25C828.685 84 828.393 84.6667 827.81 85.25C827.31 85.75 826.685 86 825.935 86H814.185C813.435 86 812.768 85.75 812.185 85.25C811.685 84.6667 811.435 84 811.435 83.25V54L777.185 23.25V83.25C777.185 84 776.893 84.6667 776.31 85.25C775.81 85.75 775.185 86 774.435 86H762.81C762.06 86 761.393 85.75 760.81 85.25C760.31 84.6667 760.06 84 760.06 83.25V3C760.06 2.25 760.31 1.625 760.81 1.125C761.393 0.541662 762.06 0.249994 762.81 0.249994H774.435C775.185 0.249994 776.018 0.458327 776.935 0.874993C777.851 1.20833 778.601 1.625 779.185 2.125L811.435 31V3ZM893.218 0.249994C893.968 0.249994 894.676 0.499996 895.343 0.999999C896.093 1.5 896.593 2.08333 896.843 2.75L914.843 47.5C915.093 48.1667 915.301 49.0417 915.468 50.125C915.718 51.125 915.843 52 915.843 52.75V83.25C915.843 84 915.551 84.6667 914.968 85.25C914.468 85.75 913.843 86 913.093 86H901.343C900.593 86 899.926 85.75 899.343 85.25C898.843 84.6667 898.593 84 898.593 83.25V68.875H864.343V83.25C864.343 84 864.051 84.6667 863.468 85.25C862.968 85.75 862.343 86 861.593 86H849.968C849.218 86 848.551 85.75 847.968 85.25C847.468 84.6667 847.218 84 847.218 83.25V52.75C847.218 52 847.301 51.125 847.468 50.125C847.718 49.0417 847.968 48.1667 848.218 47.5L866.093 2.75C866.426 2.08333 866.926 1.5 867.593 0.999999C868.343 0.499996 869.093 0.249994 869.843 0.249994H893.218ZM864.968 51.75H897.968L884.218 17.375H878.718L864.968 51.75ZM1000.25 0.249994C1001 0.249994 1001.67 0.499996 1002.25 0.999999C1002.75 1.58333 1003 2.25 1003 3V83.25C1003 84 1002.75 84.625 1002.25 85.125C1001.67 85.7083 1001 86 1000.25 86H988.626C987.876 86 987.251 85.7083 986.751 85.125C986.168 84.625 985.876 84 985.876 83.25V29.875L975.626 46.125C975.209 46.7917 974.626 47.375 973.876 47.875C973.043 48.2917 972.251 48.5 971.501 48.5H966.001C965.251 48.5 964.459 48.2917 963.626 47.875C962.876 47.375 962.293 46.7917 961.876 46.125L951.501 29.75V83.25C951.501 84 951.251 84.625 950.751 85.125C950.168 85.7083 949.501 86 948.751 86H937.126C936.376 86 935.751 85.7083 935.251 85.125C934.668 84.625 934.376 84 934.376 83.25V3C934.376 2.25 934.668 1.58333 935.251 0.999999C935.751 0.499996 936.376 0.249994 937.126 0.249994H948.751L949.626 0.374992C950.043 0.458329 950.459 0.666665 950.876 0.999999C951.709 1.41667 952.334 1.95833 952.751 2.62499L968.751 30.25L984.751 2.62499C985.168 1.95833 985.751 1.41667 986.501 0.999999L987.501 0.499998C987.834 0.333329 988.209 0.249994 988.626 0.249994H1000.25ZM1088.53 14.75C1088.53 15.5 1088.24 16.125 1087.66 16.625C1087.16 17.125 1086.53 17.375 1085.78 17.375H1064.41V68.875H1085.78C1086.53 68.875 1087.16 69.1667 1087.66 69.75C1088.24 70.25 1088.53 70.875 1088.53 71.625V83.25C1088.53 84 1088.24 84.6667 1087.66 85.25C1087.16 85.75 1086.53 86 1085.78 86H1026.03C1025.28 86 1024.62 85.75 1024.03 85.25C1023.53 84.6667 1023.28 84 1023.28 83.25V71.625C1023.28 70.875 1023.53 70.25 1024.03 69.75C1024.62 69.1667 1025.28 68.875 1026.03 68.875H1047.28V17.375H1026.03C1025.28 17.375 1024.62 17.125 1024.03 16.625C1023.53 16.125 1023.28 15.5 1023.28 14.75V3C1023.28 2.25 1023.53 1.625 1024.03 1.125C1024.62 0.541662 1025.28 0.249994 1026.03 0.249994H1085.78C1086.53 0.249994 1087.16 0.541662 1087.66 1.125C1088.24 1.625 1088.53 2.25 1088.53 3V14.75ZM1162.94 26C1162.19 26 1161.53 25.75 1160.94 25.25C1160.44 24.6667 1160.19 24 1160.19 23.25V22.375C1160.19 20.9583 1159.69 19.7917 1158.69 18.875C1157.78 17.875 1156.61 17.375 1155.19 17.375H1130.82C1129.4 17.375 1128.23 17.875 1127.32 18.875C1126.4 19.7917 1125.94 20.9583 1125.94 22.375V63.875C1125.94 65.2917 1126.4 66.5 1127.32 67.5C1128.23 68.4167 1129.4 68.875 1130.82 68.875H1155.19C1156.61 68.875 1157.78 68.4167 1158.69 67.5C1159.69 66.5 1160.19 65.2917 1160.19 63.875V63C1160.19 62.25 1160.44 61.625 1160.94 61.125C1161.53 60.5417 1162.19 60.25 1162.94 60.25H1174.57C1175.32 60.25 1175.94 60.5417 1176.44 61.125C1177.03 61.625 1177.32 62.25 1177.32 63V63.875C1177.32 66.9583 1176.73 69.8333 1175.57 72.5C1174.4 75.1667 1172.82 77.5 1170.82 79.5C1168.82 81.5 1166.48 83.0833 1163.82 84.25C1161.15 85.4167 1158.28 86 1155.19 86H1130.82C1127.82 86 1124.94 85.4167 1122.19 84.25C1119.53 83.0833 1117.19 81.5 1115.19 79.5C1113.19 77.5 1111.61 75.1667 1110.44 72.5C1109.28 69.8333 1108.69 66.9583 1108.69 63.875V22.375C1108.69 19.2917 1109.28 16.4167 1110.44 13.75C1111.61 11.0833 1113.19 8.75 1115.19 6.75C1117.19 4.75 1119.53 3.16666 1122.19 1.99999C1124.94 0.833327 1127.82 0.249994 1130.82 0.249994H1155.19C1158.28 0.249994 1161.15 0.833327 1163.82 1.99999C1166.48 3.16666 1168.82 4.75 1170.82 6.75C1172.82 8.75 1174.4 11.0833 1175.57 13.75C1176.73 16.4167 1177.32 19.2917 1177.32 22.375V23.25C1177.32 24 1177.03 24.6667 1176.44 25.25C1175.94 25.75 1175.32 26 1174.57 26H1162.94ZM1249.98 26C1249.23 26 1248.56 25.75 1247.98 25.25C1247.48 24.6667 1247.23 24 1247.23 23.25V22.375C1247.23 20.9583 1246.77 19.7917 1245.85 18.875C1244.93 17.875 1243.77 17.375 1242.35 17.375H1217.85C1216.52 17.375 1215.35 17.875 1214.35 18.875C1213.43 19.7917 1212.98 20.9583 1212.98 22.375V29.625C1212.98 31.0417 1213.43 32.25 1214.35 33.25C1215.35 34.1667 1216.52 34.625 1217.85 34.625H1242.35C1245.35 34.625 1248.18 35.2083 1250.85 36.375C1253.52 37.5417 1255.85 39.125 1257.85 41.125C1259.85 43.125 1261.43 45.4583 1262.6 48.125C1263.77 50.7917 1264.35 53.625 1264.35 56.625V63.875C1264.35 66.9583 1263.77 69.8333 1262.6 72.5C1261.43 75.1667 1259.85 77.5 1257.85 79.5C1255.85 81.5 1253.52 83.0833 1250.85 84.25C1248.18 85.4167 1245.35 86 1242.35 86H1217.85C1214.85 86 1212.02 85.4167 1209.35 84.25C1206.68 83.0833 1204.35 81.5 1202.35 79.5C1200.35 77.5 1198.77 75.1667 1197.6 72.5C1196.43 69.8333 1195.85 66.9583 1195.85 63.875V63C1195.85 62.25 1196.1 61.625 1196.6 61.125C1197.18 60.5417 1197.85 60.25 1198.6 60.25H1210.23C1210.98 60.25 1211.6 60.5417 1212.1 61.125C1212.68 61.625 1212.98 62.25 1212.98 63V63.875C1212.98 65.2917 1213.43 66.5 1214.35 67.5C1215.35 68.4167 1216.52 68.875 1217.85 68.875H1242.35C1243.77 68.875 1244.93 68.4167 1245.85 67.5C1246.77 66.5 1247.23 65.2917 1247.23 63.875V56.625C1247.23 55.2083 1246.77 54.0417 1245.85 53.125C1244.93 52.2083 1243.77 51.75 1242.35 51.75H1217.85C1214.85 51.75 1212.02 51.1667 1209.35 50C1206.68 48.8333 1204.35 47.25 1202.35 45.25C1200.35 43.25 1198.77 40.9167 1197.6 38.25C1196.43 35.5 1195.85 32.625 1195.85 29.625V22.375C1195.85 19.2917 1196.43 16.4167 1197.6 13.75C1198.77 11.0833 1200.35 8.75 1202.35 6.75C1204.35 4.75 1206.68 3.16666 1209.35 1.99999C1212.02 0.833327 1214.85 0.249994 1217.85 0.249994H1242.35C1245.35 0.249994 1248.18 0.833327 1250.85 1.99999C1253.52 3.16666 1255.85 4.75 1257.85 6.75C1259.85 8.75 1261.43 11.0833 1262.6 13.75C1263.77 16.4167 1264.35 19.2917 1264.35 22.375V23.25C1264.35 24 1264.1 24.6667 1263.6 25.25C1263.1 25.75 1262.48 26 1261.73 26H1249.98Z" fill="#E1E0DF"/>
<path d="M55.375 1.99999L55.7758 1.08384L55.375 1.99999ZM62.375 6.75L61.6679 7.4571V7.45711L62.375 6.75ZM67.125 38.25L68.0412 38.6508L68.0456 38.6405L67.125 38.25ZM62.375 45.25L63.0821 45.9571L62.375 45.25ZM55.375 50L55.7758 50.9162L55.375 50ZM17.375 51.75V50.75H16.375V51.75H17.375ZM16.625 85.25L17.3321 85.9571L17.3593 85.9299L17.3843 85.9008L16.625 85.25ZM1 85.25L0.240745 85.9008L0.290805 85.9592L0.349209 86.0093L1 85.25ZM1 1.125L1.70711 1.83211L1.70711 1.8321L1 1.125ZM50.25 18.875L49.5129 19.5507L49.5422 19.5828L49.5743 19.6122L50.25 18.875ZM17.375 17.375V16.375H16.375V17.375H17.375ZM17.375 34.625H16.375V35.625H17.375V34.625ZM46.75 1.24999C49.7037 1.24999 52.4413 1.80802 54.9742 2.91615L55.7758 1.08384C52.9754 -0.141369 49.963 -0.750006 46.75 -0.750006V1.24999ZM54.9742 2.91615C57.53 4.03432 59.7586 5.54785 61.6679 7.4571L63.0821 6.04289C60.9914 3.95214 58.5533 2.299 55.7758 1.08384L54.9742 2.91615ZM61.6679 7.45711C63.5771 9.36636 65.0907 11.595 66.2088 14.1508L68.0412 13.3492C66.826 10.5717 65.1729 8.13364 63.0821 6.04289L61.6679 7.45711ZM66.2088 14.1508C67.317 16.6837 67.875 19.4213 67.875 22.375H69.875C69.875 19.162 69.2664 16.1497 68.0412 13.3492L66.2088 14.1508ZM67.875 22.375V29.625H69.875V22.375H67.875ZM67.875 29.625C67.875 32.4914 67.3185 35.2335 66.2044 37.8594L68.0456 38.6405C69.2649 35.7665 69.875 32.7586 69.875 29.625H67.875ZM66.2088 37.8492C65.0907 40.405 63.5771 42.6336 61.6679 44.5429L63.0821 45.9571C65.1729 43.8664 66.826 41.4283 68.0412 38.6508L66.2088 37.8492ZM61.6679 44.5429C59.7586 46.4521 57.53 47.9657 54.9742 49.0838L55.7758 50.9162C58.5533 49.701 60.9914 48.0479 63.0821 45.9571L61.6679 44.5429ZM54.9742 49.0838C52.4413 50.192 49.7037 50.75 46.75 50.75V52.75C49.963 52.75 52.9754 52.1414 55.7758 50.9162L54.9742 49.0838ZM46.75 50.75H17.375V52.75H46.75V50.75ZM16.375 51.75V83.25H18.375V51.75H16.375ZM16.375 83.25C16.375 83.755 16.2145 84.1923 15.8657 84.5992L17.3843 85.9008C18.0355 85.1411 18.375 84.245 18.375 83.25H16.375ZM15.9179 84.5429C15.6177 84.8431 15.2526 85 14.75 85V87C15.7474 87 16.6323 86.6569 17.3321 85.9571L15.9179 84.5429ZM14.75 85H3V87H14.75V85ZM3 85C2.49501 85 2.05772 84.8395 1.65079 84.4907L0.349209 86.0093C1.10894 86.6605 2.00499 87 3 87V85ZM1.75926 84.5992C1.41046 84.1923 1.25 83.755 1.25 83.25H-0.75C-0.75 84.245 -0.410459 85.1411 0.240745 85.9008L1.75926 84.5992ZM1.25 83.25V3H-0.75V83.25H1.25ZM1.25 3C1.25 2.49736 1.4069 2.13231 1.70711 1.83211L0.292895 0.417889C-0.406901 1.11768 -0.75 2.00263 -0.75 3H1.25ZM1.70711 1.8321C2.1235 1.41571 2.54299 1.24999 3 1.24999V-0.750006C1.95701 -0.750006 1.04317 -0.332388 0.292892 0.417892L1.70711 1.8321ZM3 1.24999H46.75V-0.750006H3V1.24999ZM52.75 22.375C52.75 20.6921 52.1425 19.2532 50.9257 18.1378L49.5743 19.6122C50.3575 20.3301 50.75 21.2246 50.75 22.375H52.75ZM50.9872 18.1993C49.8718 16.9825 48.4329 16.375 46.75 16.375V18.375C47.9004 18.375 48.7949 18.7675 49.5129 19.5507L50.9872 18.1993ZM46.75 16.375H17.375V18.375H46.75V16.375ZM16.375 17.375V34.625H18.375V17.375H16.375ZM17.375 35.625H46.75V33.625H17.375V35.625ZM46.75 35.625C48.4048 35.625 49.8346 35.0796 50.9571 33.9571L49.5429 32.5429C48.8321 33.2537 47.9285 33.625 46.75 33.625V35.625ZM50.9571 33.9571C52.145 32.7692 52.75 31.3064 52.75 29.625H50.75C50.75 30.777 50.355 31.7308 49.5429 32.5429L50.9571 33.9571ZM52.75 29.625V22.375H50.75V29.625H52.75ZM91.7832 85.25L91.0239 85.9008L91.074 85.9592L91.1324 86.0093L91.7832 85.25ZM91.7832 1.125L92.4903 1.83211V1.8321L91.7832 1.125ZM107.283 1.125L106.524 1.77579L106.574 1.83419L106.632 1.88425L107.283 1.125ZM108.158 68.875H107.158V69.875H108.158V68.875ZM154.158 69.75L153.399 70.4008L153.424 70.4299L153.451 70.4571L154.158 69.75ZM154.158 85.25L154.865 85.9571L154.892 85.9299L154.917 85.9008L154.158 85.25ZM152.283 85H93.7832V87H152.283V85ZM93.7832 85C93.2782 85 92.8409 84.8395 92.434 84.4907L91.1324 86.0093C91.8922 86.6605 92.7882 87 93.7832 87V85ZM92.5425 84.5992C92.1937 84.1923 92.0332 83.755 92.0332 83.25H90.0332C90.0332 84.245 90.3727 85.1411 91.0239 85.9008L92.5425 84.5992ZM92.0332 83.25V3H90.0332V83.25H92.0332ZM92.0332 3C92.0332 2.49736 92.1901 2.13231 92.4903 1.83211L91.0761 0.417891C90.3763 1.11768 90.0332 2.00263 90.0332 3H92.0332ZM92.4903 1.8321C92.9067 1.41571 93.3262 1.24999 93.7832 1.24999V-0.750006C92.7402 -0.750006 91.8264 -0.332388 91.0761 0.417892L92.4903 1.8321ZM93.7832 1.24999H105.408V-0.750006H93.7832V1.24999ZM105.408 1.24999C105.858 1.24999 106.209 1.40788 106.524 1.77579L108.042 0.474207C107.358 -0.324562 106.458 -0.750006 105.408 -0.750006V1.24999ZM106.632 1.88425C107 2.1996 107.158 2.55 107.158 3H109.158C109.158 1.94999 108.733 1.0504 107.934 0.36574L106.632 1.88425ZM107.158 3V68.875H109.158V3H107.158ZM108.158 69.875H152.283V67.875H108.158V69.875ZM152.283 69.875C152.733 69.875 153.084 70.0329 153.399 70.4008L154.917 69.0992C154.233 68.3004 153.333 67.875 152.283 67.875V69.875ZM153.451 70.4571C153.751 70.7573 153.908 71.1224 153.908 71.625H155.908C155.908 70.6276 155.565 69.7427 154.865 69.0429L153.451 70.4571ZM153.908 71.625V83.25H155.908V71.625H153.908ZM153.908 83.25C153.908 83.755 153.748 84.1923 153.399 84.5992L154.917 85.9008C155.569 85.1411 155.908 84.245 155.908 83.25H153.908ZM153.451 84.5429C153.151 84.8431 152.786 85 152.283 85V87C153.281 87 154.166 86.6569 154.865 85.9571L153.451 84.5429ZM222.691 1L222.091 1.8L222.114 1.81665L222.137 1.83205L222.691 1ZM224.191 2.75L223.255 3.10112L223.259 3.1122L223.264 3.12318L224.191 2.75ZM242.191 47.5L243.128 47.1489L243.124 47.1378L243.119 47.1268L242.191 47.5ZM242.816 50.125L241.828 50.2771L241.835 50.3227L241.846 50.3675L242.816 50.125ZM242.316 85.25L243.024 85.9571H243.024L242.316 85.25ZM226.691 85.25L225.932 85.9008L225.982 85.9592L226.041 86.0093L226.691 85.25ZM225.941 68.875H226.941V67.875H225.941V68.875ZM191.691 68.875V67.875H190.691V68.875H191.691ZM190.816 85.25L190.109 84.5429L190.816 85.25ZM175.316 85.25L174.557 85.9008L174.607 85.9592L174.666 86.0093L175.316 85.25ZM174.816 50.125L173.842 49.9001L173.835 49.9302L173.83 49.9606L174.816 50.125ZM175.566 47.5L174.638 47.1291L174.634 47.1389L174.63 47.1489L175.566 47.5ZM193.441 2.75L192.547 2.30279L192.528 2.3402L192.513 2.37906L193.441 2.75ZM194.941 1L194.387 0.167952L194.364 0.183346L194.341 0.199999L194.941 1ZM192.316 51.75L191.388 51.3786L190.839 52.75H192.316V51.75ZM225.316 51.75V52.75H226.793L226.245 51.3786L225.316 51.75ZM211.566 17.375L212.495 17.0036L212.243 16.375H211.566V17.375ZM206.066 17.375V16.375H205.389L205.138 17.0036L206.066 17.375ZM220.566 1.24999C221.076 1.24999 221.578 1.41463 222.091 1.8L223.291 0.200001C222.472 -0.414644 221.557 -0.750006 220.566 -0.750006V1.24999ZM222.137 1.83205C222.759 2.24685 223.096 2.67753 223.255 3.10112L225.128 2.39888C224.787 1.48913 224.124 0.753147 223.246 0.167948L222.137 1.83205ZM223.264 3.12318L241.264 47.8732L243.119 47.1268L225.119 2.37682L223.264 3.12318ZM241.255 47.8511C241.472 48.4288 241.667 49.2295 241.828 50.2771L243.805 49.9729C243.633 48.8538 243.411 47.9046 243.128 47.1489L241.255 47.8511ZM241.846 50.3675C242.083 51.3155 242.191 52.1058 242.191 52.75H244.191C244.191 51.8942 244.05 50.9345 243.787 49.8825L241.846 50.3675ZM242.191 52.75V83.25H244.191V52.75H242.191ZM242.191 83.25C242.191 83.707 242.026 84.1265 241.609 84.5429L243.024 85.9571C243.774 85.2068 244.191 84.293 244.191 83.25H242.191ZM241.609 84.5429C241.309 84.8431 240.944 85 240.441 85V87C241.439 87 242.324 86.6569 243.024 85.9571L241.609 84.5429ZM240.441 85H228.691V87H240.441V85ZM228.691 85C228.186 85 227.749 84.8395 227.342 84.4907L226.041 86.0093C226.8 86.6605 227.696 87 228.691 87V85ZM227.451 84.5992C227.102 84.1923 226.941 83.755 226.941 83.25H224.941C224.941 84.245 225.281 85.1411 225.932 85.9008L227.451 84.5992ZM226.941 83.25V68.875H224.941V83.25H226.941ZM225.941 67.875H191.691V69.875H225.941V67.875ZM190.691 68.875V83.25H192.691V68.875H190.691ZM190.691 83.25C190.691 83.707 190.526 84.1265 190.109 84.5429L191.524 85.9571C192.274 85.2068 192.691 84.293 192.691 83.25H190.691ZM190.109 84.5429C189.809 84.8431 189.444 85 188.941 85V87C189.939 87 190.824 86.6569 191.524 85.9571L190.109 84.5429ZM188.941 85H177.316V87H188.941V85ZM177.316 85C176.811 85 176.374 84.8395 175.967 84.4907L174.666 86.0093C175.425 86.6605 176.321 87 177.316 87V85ZM176.076 84.5992C175.727 84.1923 175.566 83.755 175.566 83.25H173.566C173.566 84.245 173.906 85.1411 174.557 85.9008L176.076 84.5992ZM175.566 83.25V52.75H173.566V83.25H175.566ZM175.566 52.75C175.566 52.0704 175.642 51.2526 175.803 50.2894L173.83 49.9606C173.657 50.9974 173.566 51.9296 173.566 52.75H175.566ZM175.791 50.3499C176.036 49.2885 176.274 48.4604 176.503 47.8511L174.63 47.1489C174.359 47.8729 174.097 48.7949 173.842 49.9001L175.791 50.3499ZM176.495 47.8709L194.37 3.12094L192.513 2.37906L174.638 47.1291L176.495 47.8709ZM194.336 3.19721C194.592 2.68507 194.984 2.21797 195.541 1.8L194.341 0.199999C193.565 0.78203 192.958 1.48159 192.547 2.30279L194.336 3.19721ZM195.496 1.83205C196.115 1.41913 196.676 1.24999 197.191 1.24999V-0.750006C196.207 -0.750006 195.267 -0.419142 194.387 0.167952L195.496 1.83205ZM197.191 1.24999H220.566V-0.750006H197.191V1.24999ZM192.316 52.75H225.316V50.75H192.316V52.75ZM226.245 51.3786L212.495 17.0036L210.638 17.7464L224.388 52.1214L226.245 51.3786ZM211.566 16.375H206.066V18.375H211.566V16.375ZM205.138 17.0036L191.388 51.3786L193.245 52.1214L206.995 17.7464L205.138 17.0036ZM313.85 25.25L313.09 25.9008L313.14 25.9592L313.199 26.0093L313.85 25.25ZM311.725 18.875L310.987 19.5507L311.002 19.5667L311.018 19.5821L311.725 18.875ZM280.225 18.875L280.932 19.5821L280.225 18.875ZM280.225 33.25L279.487 33.9257L279.517 33.9578L279.549 33.9872L280.225 33.25ZM316.725 36.375L316.324 37.2912L316.725 36.375ZM323.725 41.125L324.432 40.4179L323.725 41.125ZM328.475 48.125L327.558 48.5258L328.475 48.125ZM328.475 72.5L327.558 72.0992L328.475 72.5ZM323.725 79.5L324.432 80.2071L323.725 79.5ZM316.725 84.25L316.324 83.3338L316.725 84.25ZM268.225 79.5L267.518 80.2071L268.225 79.5ZM263.475 72.5L264.391 72.0992L263.475 72.5ZM262.475 61.125L261.768 60.4179L262.475 61.125ZM277.975 61.125L277.215 61.7758L277.265 61.8342L277.324 61.8843L277.975 61.125ZM280.225 67.5L279.487 68.1757L279.517 68.2078L279.549 68.2372L280.225 67.5ZM311.725 67.5L312.432 68.2071L312.447 68.1917L312.462 68.1757L311.725 67.5ZM311.725 53.125L312.432 52.4179L311.725 53.125ZM268.225 45.25L267.518 45.9571L268.225 45.25ZM263.475 38.25L262.554 38.6406L262.558 38.6508L263.475 38.25ZM263.475 13.75L264.391 14.1508L263.475 13.75ZM268.225 6.75L268.932 7.45711H268.932L268.225 6.75ZM316.725 1.99999L316.324 2.91615L316.725 1.99999ZM329.475 25.25L330.182 25.9571L330.209 25.9299L330.234 25.9008L329.475 25.25ZM315.85 25C315.345 25 314.907 24.8395 314.5 24.4907L313.199 26.0093C313.959 26.6605 314.855 27 315.85 27V25ZM314.609 24.5992C314.26 24.1923 314.1 23.755 314.1 23.25H312.1C312.1 24.245 312.439 25.1411 313.09 25.9008L314.609 24.5992ZM314.1 23.25V22.375H312.1V23.25H314.1ZM314.1 22.375C314.1 20.7202 313.554 19.2904 312.432 18.1679L311.018 19.5821C311.728 20.2929 312.1 21.1965 312.1 22.375H314.1ZM312.462 18.1993C311.346 16.9825 309.908 16.375 308.225 16.375V18.375C309.375 18.375 310.269 18.7675 310.987 19.5507L312.462 18.1993ZM308.225 16.375H283.725V18.375H308.225V16.375ZM283.725 16.375C282.109 16.375 280.692 16.993 279.518 18.1679L280.932 19.5821C281.757 18.757 282.674 18.375 283.725 18.375V16.375ZM279.518 18.1679C278.395 19.2904 277.85 20.7202 277.85 22.375H279.85C279.85 21.1965 280.221 20.2929 280.932 19.5821L279.518 18.1679ZM277.85 22.375V29.625H279.85V22.375H277.85ZM277.85 29.625C277.85 31.2797 278.394 32.7325 279.487 33.9257L280.962 32.5743C280.222 31.7675 279.85 30.8037 279.85 29.625H277.85ZM279.549 33.9872C280.73 35.0696 282.136 35.625 283.725 35.625V33.625C282.646 33.625 281.719 33.2637 280.9 32.5128L279.549 33.9872ZM283.725 35.625H308.225V33.625H283.725V35.625ZM308.225 35.625C311.091 35.625 313.787 36.1815 316.324 37.2912L317.125 35.4588C314.328 34.2352 311.358 33.625 308.225 33.625V35.625ZM316.324 37.2912C318.88 38.4093 321.108 39.9229 323.018 41.8321L324.432 40.4179C322.341 38.3271 319.903 36.674 317.125 35.4588L316.324 37.2912ZM323.018 41.8321C324.927 43.7414 326.44 45.97 327.558 48.5258L329.391 47.7242C328.176 44.9467 326.522 42.5086 324.432 40.4179L323.018 41.8321ZM327.558 48.5258C328.668 51.0622 329.225 53.7586 329.225 56.625H331.225C331.225 53.4914 330.614 50.5211 329.391 47.7242L327.558 48.5258ZM329.225 56.625V63.875H331.225V56.625H329.225ZM329.225 63.875C329.225 66.8287 328.667 69.5663 327.558 72.0992L329.391 72.9008C330.616 70.1003 331.225 67.088 331.225 63.875H329.225ZM327.558 72.0992C326.44 74.655 324.927 76.8836 323.018 78.7929L324.432 80.2071C326.522 78.1164 328.176 75.6783 329.391 72.9008L327.558 72.0992ZM323.018 78.7929C321.108 80.7021 318.88 82.2157 316.324 83.3338L317.125 85.1662C319.903 83.951 322.341 82.2979 324.432 80.2071L323.018 78.7929ZM316.324 83.3338C313.787 84.4435 311.091 85 308.225 85V87C311.358 87 314.328 86.3898 317.125 85.1662L316.324 83.3338ZM308.225 85H283.725V87H308.225V85ZM283.725 85C280.858 85 278.162 84.4435 275.625 83.3338L274.824 85.1662C277.621 86.3898 280.591 87 283.725 87V85ZM275.625 83.3338C273.07 82.2157 270.841 80.7021 268.932 78.7929L267.518 80.2071C269.608 82.2979 272.046 83.951 274.824 85.1662L275.625 83.3338ZM268.932 78.7929C267.022 76.8836 265.509 74.655 264.391 72.0992L262.558 72.9008C263.774 75.6783 265.427 78.1164 267.518 80.2071L268.932 78.7929ZM264.391 72.0992C263.283 69.5663 262.725 66.8287 262.725 63.875H260.725C260.725 67.088 261.333 70.1003 262.558 72.9008L264.391 72.0992ZM262.725 63.875V63H260.725V63.875H262.725ZM262.725 63C262.725 62.4974 262.882 62.1323 263.182 61.8321L261.768 60.4179C261.068 61.1177 260.725 62.0026 260.725 63H262.725ZM263.182 61.8321C263.598 61.4157 264.018 61.25 264.475 61.25V59.25C263.432 59.25 262.518 59.6676 261.768 60.4179L263.182 61.8321ZM264.475 61.25H276.1V59.25H264.475V61.25ZM276.1 61.25C276.55 61.25 276.9 61.4079 277.215 61.7758L278.734 60.4742C278.049 59.6754 277.15 59.25 276.1 59.25V61.25ZM277.324 61.8843C277.692 62.1996 277.85 62.55 277.85 63H279.85C279.85 61.95 279.424 61.0504 278.625 60.3657L277.324 61.8843ZM277.85 63V63.875H279.85V63H277.85ZM277.85 63.875C277.85 65.5297 278.394 66.9825 279.487 68.1757L280.962 66.8243C280.222 66.0175 279.85 65.0537 279.85 63.875H277.85ZM279.549 68.2372C280.73 69.3196 282.136 69.875 283.725 69.875V67.875C282.646 67.875 281.719 67.5137 280.9 66.7628L279.549 68.2372ZM283.725 69.875H308.225V67.875H283.725V69.875ZM308.225 69.875C309.879 69.875 311.309 69.3296 312.432 68.2071L311.018 66.7929C310.307 67.5037 309.403 67.875 308.225 67.875V69.875ZM312.462 68.1757C313.556 66.9825 314.1 65.5297 314.1 63.875H312.1C312.1 65.0537 311.727 66.0175 310.987 66.8243L312.462 68.1757ZM314.1 63.875V56.625H312.1V63.875H314.1ZM314.1 56.625C314.1 54.9702 313.554 53.5404 312.432 52.4179L311.018 53.8321C311.728 54.5429 312.1 55.4465 312.1 56.625H314.1ZM312.432 52.4179C311.309 51.2954 309.879 50.75 308.225 50.75V52.75C309.403 52.75 310.307 53.1213 311.018 53.8321L312.432 52.4179ZM308.225 50.75H283.725V52.75H308.225V50.75ZM283.725 50.75C280.858 50.75 278.162 50.1935 275.625 49.0838L274.824 50.9162C277.621 52.1398 280.591 52.75 283.725 52.75V50.75ZM275.625 49.0838C273.07 47.9657 270.841 46.4521 268.932 44.5429L267.518 45.9571C269.608 48.0479 272.046 49.701 274.824 50.9162L275.625 49.0838ZM268.932 44.5429C267.022 42.6336 265.509 40.405 264.391 37.8492L262.558 38.6508C263.774 41.4283 265.427 43.8664 267.518 45.9571L268.932 44.5429ZM264.395 37.8594C263.281 35.2335 262.725 32.4914 262.725 29.625H260.725C260.725 32.7586 261.335 35.7665 262.554 38.6405L264.395 37.8594ZM262.725 29.625V22.375H260.725V29.625H262.725ZM262.725 22.375C262.725 19.4213 263.283 16.6837 264.391 14.1508L262.558 13.3492C261.333 16.1497 260.725 19.162 260.725 22.375H262.725ZM264.391 14.1508C265.509 11.595 267.022 9.36636 268.932 7.45711L267.518 6.04289C265.427 8.13364 263.774 10.5717 262.558 13.3492L264.391 14.1508ZM268.932 7.45711C270.841 5.54785 273.07 4.03432 275.625 2.91615L274.824 1.08384C272.046 2.299 269.608 3.95214 267.518 6.04289L268.932 7.45711ZM275.625 2.91615C278.162 1.80649 280.858 1.24999 283.725 1.24999V-0.750006C280.591 -0.750006 277.621 -0.139839 274.824 1.08384L275.625 2.91615ZM283.725 1.24999H308.225V-0.750006H283.725V1.24999ZM308.225 1.24999C311.091 1.24999 313.787 1.80649 316.324 2.91615L317.125 1.08384C314.328 -0.139839 311.358 -0.750006 308.225 -0.750006V1.24999ZM316.324 2.91615C318.88 4.03432 321.108 5.54785 323.018 7.45711L324.432 6.04289C322.341 3.95214 319.903 2.299 317.125 1.08384L316.324 2.91615ZM323.018 7.45711C324.927 9.36636 326.44 11.595 327.558 14.1508L329.391 13.3492C328.176 10.5717 326.522 8.13364 324.432 6.04289L323.018 7.45711ZM327.558 14.1508C328.667 16.6837 329.225 19.4213 329.225 22.375H331.225C331.225 19.162 330.616 16.1497 329.391 13.3492L327.558 14.1508ZM329.225 22.375V23.25H331.225V22.375H329.225ZM329.225 23.25C329.225 23.755 329.064 24.1923 328.715 24.5992L330.234 25.9008C330.885 25.141 331.225 24.245 331.225 23.25H329.225ZM328.768 24.5429C328.467 24.8431 328.102 25 327.6 25V27C328.597 27 329.482 26.6569 330.182 25.9571L328.768 24.5429ZM327.6 25H315.85V27H327.6V25ZM416.758 1L417.517 0.349207L417.467 0.290804L417.409 0.240744L416.758 1ZM416.758 85.125L417.465 85.8321L416.758 85.125ZM401.258 85.125L402.017 84.4742L401.967 84.4158L401.909 84.3657L401.258 85.125ZM400.383 29.875H401.383V26.4152L399.537 29.3415L400.383 29.875ZM390.133 46.125L389.287 45.5915L389.285 45.595L390.133 46.125ZM388.383 47.875L388.83 48.7694L388.886 48.7416L388.938 48.707L388.383 47.875ZM378.133 47.875L377.578 48.707L377.63 48.7416L377.686 48.7694L378.133 47.875ZM376.383 46.125L377.231 45.595L377.228 45.5898L376.383 46.125ZM366.008 29.75L366.853 29.2148L365.008 26.3032V29.75H366.008ZM365.258 85.125L365.965 85.8321L365.258 85.125ZM349.758 85.125L350.517 84.4742L350.467 84.4158L350.409 84.3657L349.758 85.125ZM349.758 1L350.465 1.70711L350.465 1.7071L349.758 1ZM363.258 0.249994L363.399 -0.739956L363.329 -0.750006H363.258V0.249994ZM364.133 0.374992L364.329 -0.605587L364.302 -0.611031L364.274 -0.614958L364.133 0.374992ZM365.383 1L364.758 1.78087L364.841 1.84705L364.936 1.89443L365.383 1ZM367.258 2.62499L368.123 2.1238L368.115 2.10925L368.106 2.09499L367.258 2.62499ZM383.258 30.25L382.392 30.7512L383.258 32.2452L384.123 30.7512L383.258 30.25ZM399.258 2.62499L398.41 2.09499L398.401 2.10925L398.392 2.1238L399.258 2.62499ZM401.008 1L400.561 0.105572L400.541 0.11529L400.522 0.125841L401.008 1ZM402.008 0.499998L402.455 1.39442L402.455 1.39442L402.008 0.499998ZM414.758 1.24999C415.263 1.24999 415.7 1.41045 416.107 1.75925L417.409 0.240744C416.649 -0.410461 415.753 -0.750006 414.758 -0.750006V1.24999ZM415.999 1.65079C416.347 2.05772 416.508 2.495 416.508 3H418.508C418.508 2.00499 418.168 1.10894 417.517 0.349207L415.999 1.65079ZM416.508 3V83.25H418.508V3H416.508ZM416.508 83.25C416.508 83.7526 416.351 84.1177 416.051 84.4179L417.465 85.8321C418.165 85.1323 418.508 84.2474 418.508 83.25H416.508ZM416.051 84.4179C415.634 84.8343 415.215 85 414.758 85V87C415.801 87 416.715 86.5824 417.465 85.8321L416.051 84.4179ZM414.758 85H403.133V87H414.758V85ZM403.133 85C402.683 85 402.332 84.8421 402.017 84.4742L400.499 85.7758C401.183 86.5746 402.083 87 403.133 87V85ZM401.909 84.3657C401.541 84.0504 401.383 83.7 401.383 83.25H399.383C399.383 84.3 399.808 85.1996 400.607 85.8843L401.909 84.3657ZM401.383 83.25V29.875H399.383V83.25H401.383ZM399.537 29.3415L389.287 45.5915L390.979 46.6585L401.229 30.4085L399.537 29.3415ZM389.285 45.595C388.954 46.1249 388.477 46.6102 387.828 47.0429L388.938 48.707C389.788 48.1398 390.479 47.4584 390.981 46.655L389.285 45.595ZM387.936 46.9806C387.208 47.3443 386.57 47.5 386.008 47.5V49.5C386.946 49.5 387.891 49.2391 388.83 48.7694L387.936 46.9806ZM386.008 47.5H380.508V49.5H386.008V47.5ZM380.508 47.5C379.946 47.5 379.307 47.3443 378.58 46.9806L377.686 48.7694C378.625 49.2391 379.57 49.5 380.508 49.5V47.5ZM378.688 47.0429C378.038 46.6102 377.562 46.1249 377.231 45.595L375.535 46.655C376.037 47.4584 376.727 48.1398 377.578 48.707L378.688 47.0429ZM377.228 45.5898L366.853 29.2148L365.163 30.2852L375.538 46.6602L377.228 45.5898ZM365.008 29.75V83.25H367.008V29.75H365.008ZM365.008 83.25C365.008 83.7526 364.851 84.1177 364.551 84.4179L365.965 85.8321C366.665 85.1323 367.008 84.2474 367.008 83.25H365.008ZM364.551 84.4179C364.134 84.8343 363.715 85 363.258 85V87C364.301 87 365.215 86.5824 365.965 85.8321L364.551 84.4179ZM363.258 85H351.633V87H363.258V85ZM351.633 85C351.183 85 350.832 84.8421 350.517 84.4742L348.999 85.7758C349.683 86.5746 350.583 87 351.633 87V85ZM350.409 84.3657C350.041 84.0504 349.883 83.7 349.883 83.25H347.883C347.883 84.3 348.308 85.1996 349.107 85.8843L350.409 84.3657ZM349.883 83.25V3H347.883V83.25H349.883ZM349.883 3C349.883 2.54298 350.049 2.12349 350.465 1.70711L349.051 0.292891C348.3 1.04317 347.883 1.95701 347.883 3H349.883ZM350.465 1.7071C350.765 1.4069 351.13 1.24999 351.633 1.24999V-0.750006C350.635 -0.750006 349.75 -0.406904 349.051 0.292894L350.465 1.7071ZM351.633 1.24999H363.258V-0.750006H351.633V1.24999ZM363.116 1.23994L363.991 1.36494L364.274 -0.614958L363.399 -0.739956L363.116 1.23994ZM363.937 1.35557C364.162 1.40055 364.435 1.52243 364.758 1.78087L366.008 0.21913C365.497 -0.189096 364.937 -0.483894 364.329 -0.605587L363.937 1.35557ZM364.936 1.89443C365.635 2.24419 366.107 2.67117 366.41 3.15499L368.106 2.09499C367.575 1.24549 366.797 0.589142 365.83 0.105572L364.936 1.89443ZM366.392 3.12618L382.392 30.7512L384.123 29.7488L368.123 2.1238L366.392 3.12618ZM384.123 30.7512L400.123 3.12618L398.392 2.1238L382.392 29.7488L384.123 30.7512ZM400.106 3.15499C400.425 2.64474 400.878 2.21632 401.493 1.87416L400.522 0.125841C399.638 0.61701 398.924 1.27192 398.41 2.09499L400.106 3.15499ZM401.455 1.89443L402.455 1.39442L401.561 -0.394428L400.561 0.105572L401.455 1.89443ZM402.455 1.39442C402.634 1.30502 402.853 1.24999 403.133 1.24999V-0.750006C402.579 -0.750006 402.048 -0.638359 401.561 -0.394426L402.455 1.39442ZM403.133 1.24999H414.758V-0.750006H403.133V1.24999ZM484.166 1L483.566 1.8L483.588 1.81665L483.611 1.83205L484.166 1ZM485.666 2.75L484.73 3.10112L484.734 3.1122L484.738 3.12318L485.666 2.75ZM503.666 47.5L504.602 47.1489L504.598 47.1378L504.594 47.1268L503.666 47.5ZM504.291 50.125L503.303 50.2771L503.31 50.3227L503.321 50.3675L504.291 50.125ZM503.791 85.25L504.498 85.9571L503.791 85.25ZM488.166 85.25L487.407 85.9008L487.457 85.9592L487.515 86.0093L488.166 85.25ZM487.416 68.875H488.416V67.875H487.416V68.875ZM453.166 68.875V67.875H452.166V68.875H453.166ZM452.291 85.25L451.584 84.5429L452.291 85.25ZM436.791 85.25L436.032 85.9008L436.082 85.9592L436.14 86.0093L436.791 85.25ZM436.291 50.125L435.317 49.9001L435.31 49.9302L435.305 49.9606L436.291 50.125ZM437.041 47.5L436.112 47.1291L436.108 47.1389L436.105 47.1489L437.041 47.5ZM454.916 2.75L454.022 2.30279L454.003 2.3402L453.987 2.37906L454.916 2.75ZM456.416 1L455.861 0.167952L455.838 0.183346L455.816 0.199999L456.416 1ZM453.791 51.75L452.863 51.3786L452.314 52.75H453.791V51.75ZM486.791 51.75V52.75H488.268L487.719 51.3786L486.791 51.75ZM473.041 17.375L473.969 17.0036L473.718 16.375H473.041V17.375ZM467.541 17.375V16.375H466.864L466.613 17.0036L467.541 17.375ZM482.041 1.24999C482.551 1.24999 483.052 1.41463 483.566 1.8L484.766 0.200001C483.947 -0.414644 483.031 -0.750006 482.041 -0.750006V1.24999ZM483.611 1.83205C484.234 2.24685 484.571 2.67753 484.73 3.10112L486.602 2.39888C486.261 1.48913 485.599 0.753147 484.721 0.167948L483.611 1.83205ZM484.738 3.12318L502.738 47.8732L504.594 47.1268L486.594 2.37682L484.738 3.12318ZM502.73 47.8511C502.946 48.4288 503.141 49.2295 503.303 50.2771L505.279 49.9729C505.107 48.8538 504.886 47.9046 504.602 47.1489L502.73 47.8511ZM503.321 50.3675C503.558 51.3155 503.666 52.1058 503.666 52.75H505.666C505.666 51.8942 505.524 50.9345 505.261 49.8825L503.321 50.3675ZM503.666 52.75V83.25H505.666V52.75H503.666ZM503.666 83.25C503.666 83.707 503.5 84.1265 503.084 84.5429L504.498 85.9571C505.248 85.2068 505.666 84.293 505.666 83.25H503.666ZM503.084 84.5429C502.784 84.8431 502.419 85 501.916 85V87C502.913 87 503.798 86.6569 504.498 85.9571L503.084 84.5429ZM501.916 85H490.166V87H501.916V85ZM490.166 85C489.661 85 489.224 84.8395 488.817 84.4907L487.515 86.0093C488.275 86.6605 489.171 87 490.166 87V85ZM488.925 84.5992C488.576 84.1923 488.416 83.755 488.416 83.25H486.416C486.416 84.245 486.756 85.1411 487.407 85.9008L488.925 84.5992ZM488.416 83.25V68.875H486.416V83.25H488.416ZM487.416 67.875H453.166V69.875H487.416V67.875ZM452.166 68.875V83.25H454.166V68.875H452.166ZM452.166 83.25C452.166 83.707 452 84.1265 451.584 84.5429L452.998 85.9571C453.748 85.2068 454.166 84.293 454.166 83.25H452.166ZM451.584 84.5429C451.284 84.8431 450.919 85 450.416 85V87C451.413 87 452.298 86.6569 452.998 85.9571L451.584 84.5429ZM450.416 85H438.791V87H450.416V85ZM438.791 85C438.286 85 437.849 84.8395 437.442 84.4907L436.14 86.0093C436.9 86.6605 437.796 87 438.791 87V85ZM437.55 84.5992C437.201 84.1923 437.041 83.755 437.041 83.25H435.041C435.041 84.245 435.381 85.1411 436.032 85.9008L437.55 84.5992ZM437.041 83.25V52.75H435.041V83.25H437.041ZM437.041 52.75C437.041 52.0704 437.117 51.2526 437.277 50.2894L435.305 49.9606C435.132 50.9974 435.041 51.9296 435.041 52.75H437.041ZM437.265 50.3499C437.51 49.2885 437.749 48.4604 437.977 47.8511L436.105 47.1489C435.833 47.8729 435.572 48.7949 435.317 49.9001L437.265 50.3499ZM437.97 47.8709L455.845 3.12094L453.987 2.37906L436.112 47.1291L437.97 47.8709ZM455.81 3.19721C456.067 2.68507 456.459 2.21797 457.016 1.8L455.816 0.199999C455.04 0.78203 454.432 1.48159 454.022 2.30279L455.81 3.19721ZM456.971 1.83205C457.59 1.41913 458.15 1.24999 458.666 1.24999V-0.750006C457.682 -0.750006 456.742 -0.419142 455.861 0.167952L456.971 1.83205ZM458.666 1.24999H482.041V-0.750006H458.666V1.24999ZM453.791 52.75H486.791V50.75H453.791V52.75ZM487.719 51.3786L473.969 17.0036L472.113 17.7464L485.863 52.1214L487.719 51.3786ZM473.041 16.375H467.541V18.375H473.041V16.375ZM466.613 17.0036L452.863 51.3786L454.719 52.1214L468.469 17.7464L466.613 17.0036ZM586.615 85.25L585.856 85.9008L585.906 85.9592L585.964 86.0093L586.615 85.25ZM586.615 1.125L587.322 1.83211V1.8321L586.615 1.125ZM640.865 1.99999L640.464 2.91621L640.475 2.92058L640.865 1.99999ZM647.99 6.75L647.283 7.4571V7.45711L647.99 6.75ZM652.74 72.5L651.824 72.0992L652.74 72.5ZM647.99 79.5L648.697 80.2071L647.99 79.5ZM640.865 84.25L640.475 83.3294L640.464 83.3338L640.865 84.25ZM602.99 68.875H601.99V69.875H602.99V68.875ZM635.865 67.5L636.572 68.2071L636.588 68.1917L636.602 68.1757L635.865 67.5ZM635.865 18.875L635.128 19.5507L635.143 19.5667L635.158 19.5821L635.865 18.875ZM602.99 17.375V16.375H601.99V17.375H602.99ZM588.615 85C588.11 85 587.673 84.8395 587.266 84.4907L585.964 86.0093C586.724 86.6605 587.62 87 588.615 87V85ZM587.375 84.5992C587.026 84.1923 586.865 83.755 586.865 83.25H584.865C584.865 84.245 585.205 85.1411 585.856 85.9008L587.375 84.5992ZM586.865 83.25V3H584.865V83.25H586.865ZM586.865 3C586.865 2.49736 587.022 2.13231 587.322 1.83211L585.908 0.417889C585.208 1.11768 584.865 2.00263 584.865 3H586.865ZM587.322 1.8321C587.739 1.41571 588.158 1.24999 588.615 1.24999V-0.750006C587.572 -0.750006 586.658 -0.332388 585.908 0.417892L587.322 1.8321ZM588.615 1.24999H632.365V-0.750006H588.615V1.24999ZM632.365 1.24999C635.232 1.24999 637.928 1.80649 640.464 2.91615L641.266 1.08384C638.469 -0.139839 635.499 -0.750006 632.365 -0.750006V1.24999ZM640.475 2.92058C643.113 4.03993 645.379 5.55296 647.283 7.4571L648.697 6.04289C646.602 3.94703 644.117 2.29339 641.256 1.07941L640.475 2.92058ZM647.283 7.45711C649.192 9.36636 650.706 11.595 651.824 14.1508L653.656 13.3492C652.441 10.5717 650.788 8.13364 648.697 6.04289L647.283 7.45711ZM651.824 14.1508C652.932 16.6837 653.49 19.4213 653.49 22.375H655.49C655.49 19.162 654.882 16.1497 653.656 13.3492L651.824 14.1508ZM653.49 22.375V63.875H655.49V22.375H653.49ZM653.49 63.875C653.49 66.8287 652.932 69.5663 651.824 72.0992L653.656 72.9008C654.882 70.1003 655.49 67.088 655.49 63.875H653.49ZM651.824 72.0992C650.706 74.655 649.192 76.8836 647.283 78.7929L648.697 80.2071C650.788 78.1164 652.441 75.6783 653.656 72.9008L651.824 72.0992ZM647.283 78.7929C645.379 80.697 643.113 82.2101 640.475 83.3294L641.256 85.1706C644.117 83.9566 646.602 82.303 648.697 80.2071L647.283 78.7929ZM640.464 83.3338C637.928 84.4435 635.232 85 632.365 85V87C635.499 87 638.469 86.3898 641.266 85.1662L640.464 83.3338ZM632.365 85H588.615V87H632.365V85ZM602.99 69.875H632.365V67.875H602.99V69.875ZM632.365 69.875C634.02 69.875 635.45 69.3296 636.572 68.2071L635.158 66.7929C634.447 67.5037 633.544 67.875 632.365 67.875V69.875ZM636.602 68.1757C637.696 66.9825 638.24 65.5297 638.24 63.875H636.24C636.24 65.0537 635.868 66.0175 635.128 66.8243L636.602 68.1757ZM638.24 63.875V22.375H636.24V63.875H638.24ZM638.24 22.375C638.24 20.7202 637.695 19.2904 636.572 18.1679L635.158 19.5821C635.869 20.2929 636.24 21.1965 636.24 22.375H638.24ZM636.602 18.1993C635.487 16.9825 634.048 16.375 632.365 16.375V18.375C633.516 18.375 634.41 18.7675 635.128 19.5507L636.602 18.1993ZM632.365 16.375H602.99V18.375H632.365V16.375ZM601.99 17.375V68.875H603.99V17.375H601.99ZM740.773 1.125L740.014 1.77579L740.039 1.80495L740.066 1.8321L740.773 1.125ZM741.023 24.75L741.963 25.0917V25.0917L741.023 24.75ZM739.648 27L738.941 26.2929L738.93 26.3046L738.918 26.3167L739.648 27ZM715.898 52.375L715.168 51.6917L714.898 51.98V52.375H715.898ZM715.023 85.25L715.731 85.9571L715.023 85.25ZM699.398 85.25L698.639 85.9008L698.689 85.9592L698.748 86.0093L699.398 85.25ZM698.648 52.375H699.648V51.98L699.379 51.6917L698.648 52.375ZM674.898 27L675.629 26.3167L675.617 26.3046L675.606 26.2929L674.898 27ZM673.523 24.75L672.584 25.0917V25.0917L673.523 24.75ZM673.773 1.125L674.481 1.83211L674.508 1.80495L674.533 1.77579L673.773 1.125ZM689.273 1.125L688.514 1.77579L688.564 1.83419L688.623 1.88425L689.273 1.125ZM690.648 18L689.709 18.3417L689.722 18.3783L689.738 18.4138L690.648 18ZM692.023 20.125L692.753 19.4407L692.742 19.4291L692.731 19.4179L692.023 20.125ZM707.273 36.375L706.544 37.0593L707.273 37.8363L708.003 37.0593L707.273 36.375ZM722.523 20.125L721.816 19.4179L721.805 19.4291L721.794 19.4407L722.523 20.125ZM723.773 18L722.863 17.5862L722.847 17.6217L722.834 17.6583L723.773 18ZM725.148 1.125L725.856 1.83211V1.8321L725.148 1.125ZM738.898 1.24999C739.348 1.24999 739.699 1.40788 740.014 1.77579L741.533 0.474205C740.848 -0.324562 739.948 -0.750006 738.898 -0.750006V1.24999ZM740.066 1.8321C740.367 2.13231 740.523 2.49736 740.523 3H742.523C742.523 2.00263 742.18 1.11769 741.481 0.417891L740.066 1.8321ZM740.523 3V22.25H742.523V3H740.523ZM740.523 22.25C740.523 22.8543 740.388 23.5699 740.084 24.4083L741.963 25.0917C742.325 24.0967 742.523 23.1457 742.523 22.25H740.523ZM740.084 24.4083C739.791 25.2124 739.404 25.83 738.941 26.2929L740.356 27.7071C741.059 27.0033 741.589 26.1209 741.963 25.0917L740.084 24.4083ZM738.918 26.3167L715.168 51.6917L716.629 53.0583L740.379 27.6833L738.918 26.3167ZM714.898 52.375V83.375H716.898V52.375H714.898ZM714.898 83.375C714.898 83.7164 714.759 84.0999 714.316 84.5429L715.731 85.9571C716.454 85.2334 716.898 84.3669 716.898 83.375H714.898ZM714.316 84.5429C714.016 84.8431 713.651 85 713.148 85V87C714.146 87 715.031 86.6569 715.731 85.9571L714.316 84.5429ZM713.148 85H701.398V87H713.148V85ZM701.398 85C700.893 85 700.456 84.8395 700.049 84.4907L698.748 86.0093C699.507 86.6605 700.403 87 701.398 87V85ZM700.158 84.5992C699.788 84.1678 699.648 83.767 699.648 83.375H697.648C697.648 84.3163 698.009 85.1655 698.639 85.9008L700.158 84.5992ZM699.648 83.375V52.375H697.648V83.375H699.648ZM699.379 51.6917L675.629 26.3167L674.168 27.6833L697.918 53.0583L699.379 51.6917ZM675.606 26.2929C675.143 25.83 674.756 25.2124 674.463 24.4083L672.584 25.0917C672.958 26.1209 673.488 27.0033 674.191 27.7071L675.606 26.2929ZM674.463 24.4083C674.158 23.5699 674.023 22.8543 674.023 22.25H672.023C672.023 23.1457 672.222 24.0967 672.584 25.0917L674.463 24.4083ZM674.023 22.25V3H672.023V22.25H674.023ZM674.023 3C674.023 2.49736 674.18 2.13231 674.481 1.83211L673.066 0.417889C672.367 1.11768 672.023 2.00263 672.023 3H674.023ZM674.533 1.77579C674.848 1.40788 675.198 1.24999 675.648 1.24999V-0.750006C674.598 -0.750006 673.699 -0.324562 673.014 0.474207L674.533 1.77579ZM675.648 1.24999H687.398V-0.750006H675.648V1.24999ZM687.398 1.24999C687.848 1.24999 688.199 1.40788 688.514 1.77579L690.033 0.474207C689.348 -0.324562 688.448 -0.750006 687.398 -0.750006V1.24999ZM688.623 1.88425C688.991 2.1996 689.148 2.55 689.148 3H691.148C691.148 1.94999 690.723 1.0504 689.924 0.36574L688.623 1.88425ZM689.148 3V15.5H691.148V3H689.148ZM689.148 15.5C689.148 16.3957 689.347 17.3467 689.709 18.3417L691.588 17.6583C691.283 16.8199 691.148 16.1043 691.148 15.5H689.148ZM689.738 18.4138C690.185 19.3971 690.704 20.2196 691.316 20.8321L692.731 19.4179C692.343 19.0304 691.945 18.4362 691.559 17.5862L689.738 18.4138ZM691.294 20.8093L706.544 37.0593L708.003 35.6907L692.753 19.4407L691.294 20.8093ZM708.003 37.0593L723.253 20.8093L721.794 19.4407L706.544 35.6907L708.003 37.0593ZM723.231 20.8321C723.865 20.1974 724.348 19.3467 724.713 18.3417L722.834 17.6583C722.532 18.4866 722.182 19.0526 721.816 19.4179L723.231 20.8321ZM724.684 18.4138C725.14 17.4094 725.398 16.4328 725.398 15.5H723.398C723.398 16.0672 723.24 16.7573 722.863 17.5862L724.684 18.4138ZM725.398 15.5V3H723.398V15.5H725.398ZM725.398 3C725.398 2.49736 725.555 2.13231 725.856 1.83211L724.441 0.417889C723.742 1.11768 723.398 2.00263 723.398 3H725.398ZM725.856 1.8321C726.272 1.41571 726.691 1.24999 727.148 1.24999V-0.750006C726.105 -0.750006 725.192 -0.332388 724.441 0.417892L725.856 1.8321ZM727.148 1.24999H738.898V-0.750006H727.148V1.24999ZM812.185 1.125L812.892 1.83211V1.8321L812.185 1.125ZM827.81 1.125L827.05 1.77579L827.1 1.83419L827.159 1.88425L827.81 1.125ZM827.81 85.25L828.517 85.9571L827.81 85.25ZM812.185 85.25L811.425 85.9008L811.475 85.9592L811.534 86.0093L812.185 85.25ZM811.435 54H812.435V53.5539L812.103 53.2559L811.435 54ZM777.185 23.25L777.853 22.5059L776.185 21.0083V23.25H777.185ZM776.31 85.25L775.602 84.5429L776.31 85.25ZM760.81 85.25L760.05 85.9008L760.1 85.9592L760.159 86.0093L760.81 85.25ZM760.81 1.125L761.517 1.83211V1.8321L760.81 1.125ZM776.935 0.874992L776.521 1.78536L776.556 1.80148L776.593 1.81479L776.935 0.874992ZM779.185 2.125L779.852 1.37998L779.844 1.37278L779.835 1.36575L779.185 2.125ZM811.435 31L810.768 31.745L812.435 33.2376V31H811.435ZM812.435 3C812.435 2.49736 812.591 2.13231 812.892 1.83211L811.477 0.417889C810.778 1.11768 810.435 2.00263 810.435 3H812.435ZM812.892 1.8321C813.308 1.41571 813.728 1.24999 814.185 1.24999V-0.750006C813.142 -0.750006 812.228 -0.332388 811.477 0.417892L812.892 1.8321ZM814.185 1.24999H825.935V-0.750006H814.185V1.24999ZM825.935 1.24999C826.385 1.24999 826.735 1.40788 827.05 1.77579L828.569 0.474205C827.884 -0.324562 826.985 -0.750006 825.935 -0.750006V1.24999ZM827.159 1.88425C827.527 2.19959 827.685 2.55 827.685 3H829.685C829.685 1.94999 829.259 1.0504 828.46 0.365742L827.159 1.88425ZM827.685 3V83.25H829.685V3H827.685ZM827.685 83.25C827.685 83.707 827.519 84.1265 827.102 84.5429L828.517 85.9571C829.267 85.2068 829.685 84.293 829.685 83.25H827.685ZM827.102 84.5429C826.802 84.8431 826.437 85 825.935 85V87C826.932 87 827.817 86.6569 828.517 85.9571L827.102 84.5429ZM825.935 85H814.185V87H825.935V85ZM814.185 85C813.68 85 813.242 84.8395 812.835 84.4907L811.534 86.0093C812.294 86.6605 813.19 87 814.185 87V85ZM812.944 84.5992C812.595 84.1923 812.435 83.755 812.435 83.25H810.435C810.435 84.245 810.774 85.1411 811.425 85.9008L812.944 84.5992ZM812.435 83.25V54H810.435V83.25H812.435ZM812.103 53.2559L777.853 22.5059L776.516 23.9941L810.766 54.7441L812.103 53.2559ZM776.185 23.25V83.25H778.185V23.25H776.185ZM776.185 83.25C776.185 83.707 776.019 84.1265 775.602 84.5429L777.017 85.9571C777.767 85.2068 778.185 84.293 778.185 83.25H776.185ZM775.602 84.5429C775.302 84.8431 774.937 85 774.435 85V87C775.432 87 776.317 86.6569 777.017 85.9571L775.602 84.5429ZM774.435 85H762.81V87H774.435V85ZM762.81 85C762.305 85 761.867 84.8395 761.46 84.4907L760.159 86.0093C760.919 86.6605 761.815 87 762.81 87V85ZM761.569 84.5992C761.22 84.1923 761.06 83.755 761.06 83.25H759.06C759.06 84.245 759.399 85.1411 760.05 85.9008L761.569 84.5992ZM761.06 83.25V3H759.06V83.25H761.06ZM761.06 3C761.06 2.49736 761.216 2.13231 761.517 1.83211L760.102 0.417889C759.403 1.11768 759.06 2.00263 759.06 3H761.06ZM761.517 1.8321C761.933 1.41571 762.353 1.24999 762.81 1.24999V-0.750006C761.767 -0.750006 760.853 -0.332388 760.102 0.417892L761.517 1.8321ZM762.81 1.24999H774.435V-0.750006H762.81V1.24999ZM774.435 1.24999C775.002 1.24999 775.692 1.40858 776.521 1.78536L777.348 -0.0353737C776.344 -0.49193 775.367 -0.750006 774.435 -0.750006V1.24999ZM776.593 1.81479C777.426 2.11761 778.063 2.48044 778.534 2.88425L779.835 1.36575C779.14 0.769548 778.277 0.299042 777.276 -0.0648003L776.593 1.81479ZM778.518 2.87001L810.768 31.745L812.102 30.255L779.852 1.37998L778.518 2.87001ZM812.435 31V3H810.435V31H812.435ZM895.343 1L894.743 1.8L894.765 1.81665L894.788 1.83205L895.343 1ZM896.843 2.75L895.906 3.10112L895.911 3.1122L895.915 3.12318L896.843 2.75ZM914.843 47.5L915.779 47.1489L915.775 47.1378L915.771 47.1268L914.843 47.5ZM915.468 50.125L914.479 50.2771L914.486 50.3227L914.498 50.3675L915.468 50.125ZM914.968 85.25L915.675 85.9571L914.968 85.25ZM899.343 85.25L898.583 85.9008L898.634 85.9592L898.692 86.0093L899.343 85.25ZM898.593 68.875H899.593V67.875H898.593V68.875ZM864.343 68.875V67.875H863.343V68.875H864.343ZM863.468 85.25L862.761 84.5429L863.468 85.25ZM847.968 85.25L847.208 85.9008L847.259 85.9592L847.317 86.0093L847.968 85.25ZM847.468 50.125L846.493 49.9001L846.486 49.9302L846.481 49.9606L847.468 50.125ZM848.218 47.5L847.289 47.1291L847.285 47.1389L847.281 47.1489L848.218 47.5ZM866.093 2.75L865.198 2.30279L865.18 2.3402L865.164 2.37906L866.093 2.75ZM867.593 1L867.038 0.167952L867.015 0.183346L866.993 0.199999L867.593 1ZM864.968 51.75L864.039 51.3786L863.491 52.75H864.968V51.75ZM897.968 51.75V52.75H899.445L898.896 51.3786L897.968 51.75ZM884.218 17.375L885.146 17.0036L884.895 16.375H884.218V17.375ZM878.718 17.375V16.375H878.041L877.789 17.0036L878.718 17.375ZM893.218 1.24999C893.727 1.24999 894.229 1.41463 894.743 1.8L895.943 0.200001C895.123 -0.414644 894.208 -0.750006 893.218 -0.750006V1.24999ZM894.788 1.83205C895.41 2.24685 895.748 2.67753 895.906 3.10112L897.779 2.39888C897.438 1.48913 896.775 0.753147 895.897 0.167948L894.788 1.83205ZM895.915 3.12318L913.915 47.8732L915.771 47.1268L897.771 2.37682L895.915 3.12318ZM913.906 47.8511C914.123 48.4288 914.318 49.2295 914.479 50.2771L916.456 49.9729C916.284 48.8538 916.062 47.9046 915.779 47.1489L913.906 47.8511ZM914.498 50.3675C914.735 51.3155 914.843 52.1058 914.843 52.75H916.843C916.843 51.8942 916.701 50.9345 916.438 49.8825L914.498 50.3675ZM914.843 52.75V83.25H916.843V52.75H914.843ZM914.843 83.25C914.843 83.707 914.677 84.1265 914.261 84.5429L915.675 85.9571C916.425 85.2068 916.843 84.293 916.843 83.25H914.843ZM914.261 84.5429C913.96 84.8431 913.595 85 913.093 85V87C914.09 87 914.975 86.6569 915.675 85.9571L914.261 84.5429ZM913.093 85H901.343V87H913.093V85ZM901.343 85C900.838 85 900.401 84.8395 899.994 84.4907L898.692 86.0093C899.452 86.6605 900.348 87 901.343 87V85ZM900.102 84.5992C899.753 84.1923 899.593 83.755 899.593 83.25H897.593C897.593 84.245 897.932 85.1411 898.583 85.9008L900.102 84.5992ZM899.593 83.25V68.875H897.593V83.25H899.593ZM898.593 67.875H864.343V69.875H898.593V67.875ZM863.343 68.875V83.25H865.343V68.875H863.343ZM863.343 83.25C863.343 83.707 863.177 84.1265 862.761 84.5429L864.175 85.9571C864.925 85.2068 865.343 84.293 865.343 83.25H863.343ZM862.761 84.5429C862.46 84.8431 862.095 85 861.593 85V87C862.59 87 863.475 86.6569 864.175 85.9571L862.761 84.5429ZM861.593 85H849.968V87H861.593V85ZM849.968 85C849.463 85 849.026 84.8395 848.619 84.4907L847.317 86.0093C848.077 86.6605 848.973 87 849.968 87V85ZM848.727 84.5992C848.378 84.1923 848.218 83.755 848.218 83.25H846.218C846.218 84.245 846.557 85.1411 847.208 85.9008L848.727 84.5992ZM848.218 83.25V52.75H846.218V83.25H848.218ZM848.218 52.75C848.218 52.0704 848.294 51.2526 848.454 50.2894L846.481 49.9606C846.309 50.9974 846.218 51.9296 846.218 52.75H848.218ZM848.442 50.3499C848.687 49.2885 848.926 48.4604 849.154 47.8511L847.281 47.1489C847.01 47.8729 846.748 48.7949 846.493 49.9001L848.442 50.3499ZM849.146 47.8709L867.021 3.12094L865.164 2.37906L847.289 47.1291L849.146 47.8709ZM866.987 3.19721C867.243 2.68507 867.635 2.21797 868.193 1.8L866.993 0.199999C866.217 0.78203 865.609 1.48159 865.198 2.30279L866.987 3.19721ZM868.147 1.83205C868.767 1.41913 869.327 1.24999 869.843 1.24999V-0.750006C868.858 -0.750006 867.919 -0.419142 867.038 0.167952L868.147 1.83205ZM869.843 1.24999H893.218V-0.750006H869.843V1.24999ZM864.968 52.75H897.968V50.75H864.968V52.75ZM898.896 51.3786L885.146 17.0036L883.289 17.7464L897.039 52.1214L898.896 51.3786ZM884.218 16.375H878.718V18.375H884.218V16.375ZM877.789 17.0036L864.039 51.3786L865.896 52.1214L879.646 17.7464L877.789 17.0036ZM1002.25 1L1003.01 0.349207L1002.96 0.290804L1002.9 0.240744L1002.25 1ZM1002.25 85.125L1002.96 85.8321L1002.25 85.125ZM986.751 85.125L987.51 84.4742L987.46 84.4158L987.402 84.3657L986.751 85.125ZM985.876 29.875H986.876V26.4152L985.03 29.3415L985.876 29.875ZM975.626 46.125L974.78 45.5915L974.778 45.595L975.626 46.125ZM973.876 47.875L974.323 48.7694L974.379 48.7416L974.431 48.707L973.876 47.875ZM963.626 47.875L963.071 48.707L963.123 48.7416L963.179 48.7694L963.626 47.875ZM961.876 46.125L962.724 45.595L962.721 45.5898L961.876 46.125ZM951.501 29.75L952.346 29.2148L950.501 26.3032V29.75H951.501ZM950.751 85.125L951.458 85.8321L950.751 85.125ZM935.251 85.125L936.01 84.4742L935.96 84.4158L935.902 84.3657L935.251 85.125ZM935.251 1L935.958 1.70711V1.7071L935.251 1ZM948.751 0.249994L948.892 -0.739956L948.822 -0.750006H948.751V0.249994ZM949.626 0.374992L949.822 -0.605587L949.795 -0.611031L949.767 -0.614958L949.626 0.374992ZM950.876 1L950.251 1.78087L950.334 1.84705L950.429 1.89443L950.876 1ZM952.751 2.62499L953.616 2.1238L953.608 2.10925L953.599 2.09499L952.751 2.62499ZM968.751 30.25L967.886 30.7512L968.751 32.2452L969.616 30.7512L968.751 30.25ZM984.751 2.62499L983.903 2.09499L983.894 2.10925L983.886 2.1238L984.751 2.62499ZM986.501 1L986.054 0.105572L986.034 0.11529L986.015 0.125841L986.501 1ZM987.501 0.499998L987.948 1.39442V1.39442L987.501 0.499998ZM1000.25 1.24999C1000.76 1.24999 1001.19 1.41045 1001.6 1.75925L1002.9 0.240744C1002.14 -0.410461 1001.25 -0.750006 1000.25 -0.750006V1.24999ZM1001.49 1.65079C1001.84 2.05772 1002 2.495 1002 3H1004C1004 2.00499 1003.66 1.10894 1003.01 0.349207L1001.49 1.65079ZM1002 3V83.25H1004V3H1002ZM1002 83.25C1002 83.7526 1001.84 84.1177 1001.54 84.4179L1002.96 85.8321C1003.66 85.1323 1004 84.2474 1004 83.25H1002ZM1001.54 84.4179C1001.13 84.8343 1000.71 85 1000.25 85V87C1001.29 87 1002.21 86.5824 1002.96 85.8321L1001.54 84.4179ZM1000.25 85H988.626V87H1000.25V85ZM988.626 85C988.176 85 987.826 84.8421 987.51 84.4742L985.992 85.7758C986.676 86.5746 987.576 87 988.626 87V85ZM987.402 84.3657C987.034 84.0504 986.876 83.7 986.876 83.25H984.876C984.876 84.3 985.301 85.1996 986.1 85.8843L987.402 84.3657ZM986.876 83.25V29.875H984.876V83.25H986.876ZM985.03 29.3415L974.78 45.5915L976.472 46.6585L986.722 30.4085L985.03 29.3415ZM974.778 45.595C974.447 46.1249 973.97 46.6102 973.321 47.0429L974.431 48.707C975.281 48.1398 975.972 47.4584 976.474 46.655L974.778 45.595ZM973.429 46.9806C972.701 47.3443 972.063 47.5 971.501 47.5V49.5C972.439 49.5 973.384 49.2391 974.323 48.7694L973.429 46.9806ZM971.501 47.5H966.001V49.5H971.501V47.5ZM966.001 47.5C965.439 47.5 964.801 47.3443 964.073 46.9806L963.179 48.7694C964.118 49.2391 965.063 49.5 966.001 49.5V47.5ZM964.181 47.0429C963.531 46.6102 963.055 46.1249 962.724 45.595L961.028 46.655C961.53 47.4584 962.22 48.1398 963.071 48.707L964.181 47.0429ZM962.721 45.5898L952.346 29.2148L950.656 30.2852L961.031 46.6602L962.721 45.5898ZM950.501 29.75V83.25H952.501V29.75H950.501ZM950.501 83.25C950.501 83.7526 950.344 84.1177 950.044 84.4179L951.458 85.8321C952.158 85.1323 952.501 84.2474 952.501 83.25H950.501ZM950.044 84.4179C949.628 84.8343 949.208 85 948.751 85V87C949.794 87 950.708 86.5824 951.458 85.8321L950.044 84.4179ZM948.751 85H937.126V87H948.751V85ZM937.126 85C936.676 85 936.326 84.8421 936.01 84.4742L934.492 85.7758C935.176 86.5746 936.076 87 937.126 87V85ZM935.902 84.3657C935.534 84.0504 935.376 83.7 935.376 83.25H933.376C933.376 84.3 933.801 85.1996 934.6 85.8843L935.902 84.3657ZM935.376 83.25V3H933.376V83.25H935.376ZM935.376 3C935.376 2.54298 935.542 2.12349 935.958 1.70711L934.544 0.292891C933.794 1.04317 933.376 1.95701 933.376 3H935.376ZM935.958 1.7071C936.258 1.4069 936.623 1.24999 937.126 1.24999V-0.750006C936.129 -0.750006 935.244 -0.406904 934.544 0.292894L935.958 1.7071ZM937.126 1.24999H948.751V-0.750006H937.126V1.24999ZM948.61 1.23994L949.485 1.36494L949.767 -0.614958L948.892 -0.739956L948.61 1.23994ZM949.43 1.35557C949.655 1.40055 949.928 1.52243 950.251 1.78087L951.501 0.21913C950.99 -0.189096 950.431 -0.483894 949.822 -0.605587L949.43 1.35557ZM950.429 1.89443C951.128 2.24419 951.601 2.67117 951.903 3.15499L953.599 2.09499C953.068 1.24549 952.29 0.589142 951.323 0.105572L950.429 1.89443ZM951.886 3.12618L967.886 30.7512L969.616 29.7488L953.616 2.1238L951.886 3.12618ZM969.616 30.7512L985.616 3.12618L983.886 2.1238L967.886 29.7488L969.616 30.7512ZM985.599 3.15499C985.918 2.64474 986.371 2.21632 986.987 1.87416L986.015 0.125841C985.131 0.61701 984.417 1.27192 983.903 2.09499L985.599 3.15499ZM986.948 1.89443L987.948 1.39442L987.054 -0.394428L986.054 0.105572L986.948 1.89443ZM987.948 1.39442C988.127 1.30502 988.346 1.24999 988.626 1.24999V-0.750006C988.073 -0.750006 987.542 -0.638359 987.054 -0.394426L987.948 1.39442ZM988.626 1.24999H1000.25V-0.750006H988.626V1.24999ZM1087.66 16.625L1087.01 15.8657L1086.98 15.8907L1086.95 15.9179L1087.66 16.625ZM1064.41 17.375V16.375H1063.41V17.375H1064.41ZM1064.41 68.875H1063.41V69.875H1064.41V68.875ZM1087.66 69.75L1086.9 70.4008L1086.95 70.4592L1087.01 70.5093L1087.66 69.75ZM1087.66 85.25L1088.37 85.9571L1087.66 85.25ZM1024.03 85.25L1023.27 85.9008L1023.32 85.9592L1023.38 86.0093L1024.03 85.25ZM1024.03 69.75L1023.33 69.0429L1024.03 69.75ZM1047.28 68.875V69.875H1048.28V68.875H1047.28ZM1047.28 17.375H1048.28V16.375H1047.28V17.375ZM1024.03 16.625L1023.33 17.3321L1023.35 17.3593L1023.38 17.3843L1024.03 16.625ZM1024.03 1.125L1024.74 1.83211V1.8321L1024.03 1.125ZM1087.66 1.125L1086.9 1.77579L1086.95 1.83419L1087.01 1.88425L1087.66 1.125ZM1087.53 14.75C1087.53 15.2 1087.38 15.5504 1087.01 15.8657L1088.31 17.3843C1089.11 16.6996 1089.53 15.8 1089.53 14.75H1087.53ZM1086.95 15.9179C1086.65 16.2181 1086.29 16.375 1085.78 16.375V18.375C1086.78 18.375 1087.67 18.0319 1088.37 17.3321L1086.95 15.9179ZM1085.78 16.375H1064.41V18.375H1085.78V16.375ZM1063.41 17.375V68.875H1065.41V17.375H1063.41ZM1064.41 69.875H1085.78V67.875H1064.41V69.875ZM1085.78 69.875C1086.23 69.875 1086.58 70.0329 1086.9 70.4008L1088.42 69.0992C1087.73 68.3004 1086.83 67.875 1085.78 67.875V69.875ZM1087.01 70.5093C1087.38 70.8246 1087.53 71.175 1087.53 71.625H1089.53C1089.53 70.575 1089.11 69.6754 1088.31 68.9907L1087.01 70.5093ZM1087.53 71.625V83.25H1089.53V71.625H1087.53ZM1087.53 83.25C1087.53 83.707 1087.37 84.1265 1086.95 84.5429L1088.37 85.9571C1089.12 85.2068 1089.53 84.293 1089.53 83.25H1087.53ZM1086.95 84.5429C1086.65 84.8431 1086.29 85 1085.78 85V87C1086.78 87 1087.67 86.6569 1088.37 85.9571L1086.95 84.5429ZM1085.78 85H1026.03V87H1085.78V85ZM1026.03 85C1025.53 85 1025.09 84.8395 1024.68 84.4907L1023.38 86.0093C1024.14 86.6605 1025.04 87 1026.03 87V85ZM1024.79 84.5992C1024.44 84.1923 1024.28 83.755 1024.28 83.25H1022.28C1022.28 84.245 1022.62 85.1411 1023.27 85.9008L1024.79 84.5992ZM1024.28 83.25V71.625H1022.28V83.25H1024.28ZM1024.28 71.625C1024.28 71.1224 1024.44 70.7573 1024.74 70.4571L1023.33 69.0429C1022.63 69.7427 1022.28 70.6276 1022.28 71.625H1024.28ZM1024.74 70.4571C1025.16 70.0407 1025.58 69.875 1026.03 69.875V67.875C1024.99 67.875 1024.08 68.2926 1023.33 69.0429L1024.74 70.4571ZM1026.03 69.875H1047.28V67.875H1026.03V69.875ZM1048.28 68.875V17.375H1046.28V68.875H1048.28ZM1047.28 16.375H1026.03V18.375H1047.28V16.375ZM1026.03 16.375C1025.53 16.375 1025.09 16.2145 1024.68 15.8657L1023.38 17.3843C1024.14 18.0355 1025.04 18.375 1026.03 18.375V16.375ZM1024.74 15.9179C1024.44 15.6177 1024.28 15.2526 1024.28 14.75H1022.28C1022.28 15.7474 1022.63 16.6323 1023.33 17.3321L1024.74 15.9179ZM1024.28 14.75V3H1022.28V14.75H1024.28ZM1024.28 3C1024.28 2.49736 1024.44 2.13231 1024.74 1.83211L1023.33 0.417891C1022.63 1.11768 1022.28 2.00263 1022.28 3H1024.28ZM1024.74 1.8321C1025.16 1.41571 1025.58 1.24999 1026.03 1.24999V-0.750006C1024.99 -0.750006 1024.08 -0.332388 1023.33 0.417892L1024.74 1.8321ZM1026.03 1.24999H1085.78V-0.750006H1026.03V1.24999ZM1085.78 1.24999C1086.23 1.24999 1086.58 1.40788 1086.9 1.77579L1088.42 0.474205C1087.73 -0.324562 1086.83 -0.750006 1085.78 -0.750006V1.24999ZM1087.01 1.88425C1087.38 2.19959 1087.53 2.55 1087.53 3H1089.53C1089.53 1.94999 1089.11 1.0504 1088.31 0.365742L1087.01 1.88425ZM1087.53 3V14.75H1089.53V3H1087.53ZM1160.94 25.25L1160.18 25.9008L1160.23 25.9592L1160.29 26.0093L1160.94 25.25ZM1158.69 18.875L1157.96 19.5507L1157.98 19.5828L1158.02 19.6122L1158.69 18.875ZM1127.32 18.875L1128.02 19.5821L1128.04 19.5667L1128.05 19.5507L1127.32 18.875ZM1127.32 67.5L1126.58 68.1757L1126.59 68.1917L1126.61 68.2071L1127.32 67.5ZM1158.69 67.5L1159.4 68.2071L1158.69 67.5ZM1160.94 61.125L1160.24 60.4179L1160.94 61.125ZM1176.44 61.125L1175.68 61.7758L1175.73 61.8342L1175.79 61.8843L1176.44 61.125ZM1175.57 72.5L1174.65 72.0992L1175.57 72.5ZM1170.82 79.5L1171.52 80.2071L1170.82 79.5ZM1163.82 84.25L1164.22 85.1662L1163.82 84.25ZM1122.19 84.25L1121.79 85.1662L1121.8 85.1706L1122.19 84.25ZM1115.19 79.5L1114.49 80.2071L1115.19 79.5ZM1110.44 72.5L1111.36 72.0992L1110.44 72.5ZM1110.44 13.75L1111.36 14.1508L1110.44 13.75ZM1115.19 6.75L1115.9 7.45711L1115.19 6.75ZM1122.19 1.99999L1121.8 1.07936L1121.79 1.08384L1122.19 1.99999ZM1163.82 1.99999L1164.22 1.08384L1163.82 1.99999ZM1170.82 6.75L1170.11 7.4571V7.45711L1170.82 6.75ZM1176.44 25.25L1177.15 25.9571V25.9571L1176.44 25.25ZM1162.94 25C1162.44 25 1162 24.8395 1161.59 24.4907L1160.29 26.0093C1161.05 26.6605 1161.95 27 1162.94 27V25ZM1161.7 24.5992C1161.35 24.1923 1161.19 23.755 1161.19 23.25H1159.19C1159.19 24.245 1159.53 25.141 1160.18 25.9008L1161.7 24.5992ZM1161.19 23.25V22.375H1159.19V23.25H1161.19ZM1161.19 22.375C1161.19 20.6921 1160.58 19.2532 1159.37 18.1378L1158.02 19.6122C1158.8 20.3301 1159.19 21.2246 1159.19 22.375H1161.19ZM1159.43 18.1993C1158.31 16.9825 1156.88 16.375 1155.19 16.375V18.375C1156.34 18.375 1157.24 18.7675 1157.96 19.5507L1159.43 18.1993ZM1155.19 16.375H1130.82V18.375H1155.19V16.375ZM1130.82 16.375C1129.13 16.375 1127.7 16.9825 1126.58 18.1993L1128.05 19.5507C1128.77 18.7675 1129.67 18.375 1130.82 18.375V16.375ZM1126.61 18.1679C1125.49 19.2904 1124.94 20.7202 1124.94 22.375H1126.94C1126.94 21.1965 1127.31 20.2929 1128.02 19.5821L1126.61 18.1679ZM1124.94 22.375V63.875H1126.94V22.375H1124.94ZM1124.94 63.875C1124.94 65.5297 1125.49 66.9825 1126.58 68.1757L1128.05 66.8243C1127.31 66.0175 1126.94 65.0537 1126.94 63.875H1124.94ZM1126.61 68.2071C1127.73 69.3296 1129.16 69.875 1130.82 69.875V67.875C1129.64 67.875 1128.74 67.5037 1128.02 66.7929L1126.61 68.2071ZM1130.82 69.875H1155.19V67.875H1130.82V69.875ZM1155.19 69.875C1156.85 69.875 1158.28 69.3296 1159.4 68.2071L1157.99 66.7929C1157.27 67.5037 1156.37 67.875 1155.19 67.875V69.875ZM1159.4 68.2071C1160.59 67.0192 1161.19 65.5564 1161.19 63.875H1159.19C1159.19 65.027 1158.8 65.9808 1157.99 66.7929L1159.4 68.2071ZM1161.19 63.875V63H1159.19V63.875H1161.19ZM1161.19 63C1161.19 62.4974 1161.35 62.1323 1161.65 61.8321L1160.24 60.4179C1159.54 61.1177 1159.19 62.0026 1159.19 63H1161.19ZM1161.65 61.8321C1162.07 61.4157 1162.49 61.25 1162.94 61.25V59.25C1161.9 59.25 1160.99 59.6676 1160.24 60.4179L1161.65 61.8321ZM1162.94 61.25H1174.57V59.25H1162.94V61.25ZM1174.57 61.25C1175.02 61.25 1175.37 61.4079 1175.68 61.7758L1177.2 60.4742C1176.52 59.6754 1175.62 59.25 1174.57 59.25V61.25ZM1175.79 61.8843C1176.16 62.1996 1176.32 62.55 1176.32 63H1178.32C1178.32 61.95 1177.89 61.0504 1177.09 60.3657L1175.79 61.8843ZM1176.32 63V63.875H1178.32V63H1176.32ZM1176.32 63.875C1176.32 66.8287 1175.76 69.5663 1174.65 72.0992L1176.48 72.9008C1177.71 70.1003 1178.32 67.088 1178.32 63.875H1176.32ZM1174.65 72.0992C1173.53 74.655 1172.02 76.8836 1170.11 78.7929L1171.52 80.2071C1173.62 78.1164 1175.27 75.6783 1176.48 72.9008L1174.65 72.0992ZM1170.11 78.7929C1168.2 80.7021 1165.97 82.2157 1163.42 83.3338L1164.22 85.1662C1167 83.951 1169.43 82.2979 1171.52 80.2071L1170.11 78.7929ZM1163.42 83.3338C1160.88 84.442 1158.15 85 1155.19 85V87C1158.41 87 1161.42 86.3914 1164.22 85.1662L1163.42 83.3338ZM1155.19 85H1130.82V87H1155.19V85ZM1130.82 85C1127.95 85 1125.21 84.4434 1122.58 83.3294L1121.8 85.1706C1124.68 86.3899 1127.68 87 1130.82 87V85ZM1122.59 83.3338C1120.04 82.2157 1117.81 80.7021 1115.9 78.7929L1114.49 80.2071C1116.58 82.2979 1119.01 83.951 1121.79 85.1662L1122.59 83.3338ZM1115.9 78.7929C1113.99 76.8836 1112.48 74.655 1111.36 72.0992L1109.53 72.9008C1110.74 75.6783 1112.39 78.1164 1114.49 80.2071L1115.9 78.7929ZM1111.36 72.0992C1110.25 69.5663 1109.69 66.8287 1109.69 63.875H1107.69C1107.69 67.088 1108.3 70.1003 1109.53 72.9008L1111.36 72.0992ZM1109.69 63.875V22.375H1107.69V63.875H1109.69ZM1109.69 22.375C1109.69 19.4213 1110.25 16.6837 1111.36 14.1508L1109.53 13.3492C1108.3 16.1497 1107.69 19.162 1107.69 22.375H1109.69ZM1111.36 14.1508C1112.48 11.595 1113.99 9.36636 1115.9 7.45711L1114.49 6.04289C1112.39 8.13364 1110.74 10.5717 1109.53 13.3492L1111.36 14.1508ZM1115.9 7.45711C1117.81 5.54785 1120.04 4.03432 1122.59 2.91615L1121.79 1.08384C1119.01 2.299 1116.58 3.95214 1114.49 6.04289L1115.9 7.45711ZM1122.58 2.92058C1125.21 1.80655 1127.95 1.24999 1130.82 1.24999V-0.750006C1127.68 -0.750006 1124.68 -0.139894 1121.8 1.07941L1122.58 2.92058ZM1130.82 1.24999H1155.19V-0.750006H1130.82V1.24999ZM1155.19 1.24999C1158.15 1.24999 1160.88 1.80802 1163.42 2.91615L1164.22 1.08384C1161.42 -0.141369 1158.41 -0.750006 1155.19 -0.750006V1.24999ZM1163.42 2.91615C1165.97 4.03432 1168.2 5.54785 1170.11 7.4571L1171.52 6.04289C1169.43 3.95214 1167 2.299 1164.22 1.08384L1163.42 2.91615ZM1170.11 7.45711C1172.02 9.36636 1173.53 11.595 1174.65 14.1508L1176.48 13.3492C1175.27 10.5717 1173.62 8.13364 1171.52 6.04289L1170.11 7.45711ZM1174.65 14.1508C1175.76 16.6837 1176.32 19.4213 1176.32 22.375H1178.32C1178.32 19.162 1177.71 16.1497 1176.48 13.3492L1174.65 14.1508ZM1176.32 22.375V23.25H1178.32V22.375H1176.32ZM1176.32 23.25C1176.32 23.707 1176.15 24.1265 1175.74 24.5429L1177.15 25.9571C1177.9 25.2068 1178.32 24.293 1178.32 23.25H1176.32ZM1175.74 24.5429C1175.44 24.8431 1175.07 25 1174.57 25V27C1175.56 27 1176.45 26.6569 1177.15 25.9571L1175.74 24.5429ZM1174.57 25H1162.94V27H1174.57V25ZM1247.98 25.25L1247.22 25.9008L1247.27 25.9592L1247.32 26.0093L1247.98 25.25ZM1245.85 18.875L1245.11 19.5507L1245.13 19.5667L1245.14 19.5821L1245.85 18.875ZM1214.35 18.875L1215.06 19.5821L1214.35 18.875ZM1214.35 33.25L1213.61 33.9257L1213.64 33.9578L1213.67 33.9872L1214.35 33.25ZM1250.85 36.375L1250.45 37.2912L1250.85 36.375ZM1257.85 41.125L1258.56 40.4179L1257.85 41.125ZM1262.6 48.125L1261.68 48.5258L1262.6 48.125ZM1262.6 72.5L1261.68 72.0992L1262.6 72.5ZM1257.85 79.5L1258.56 80.2071L1257.85 79.5ZM1250.85 84.25L1250.45 83.3338L1250.85 84.25ZM1202.35 79.5L1201.64 80.2071L1202.35 79.5ZM1197.6 72.5L1198.52 72.0992L1197.6 72.5ZM1196.6 61.125L1195.89 60.4179L1196.6 61.125ZM1212.1 61.125L1211.34 61.7758L1211.39 61.8342L1211.45 61.8843L1212.1 61.125ZM1214.35 67.5L1213.61 68.1757L1213.64 68.2078L1213.67 68.2372L1214.35 67.5ZM1245.85 67.5L1246.56 68.2071L1246.57 68.1917L1246.59 68.1757L1245.85 67.5ZM1245.85 53.125L1246.56 52.4179L1245.85 53.125ZM1202.35 45.25L1201.64 45.9571L1202.35 45.25ZM1197.6 38.25L1196.68 38.6406L1196.68 38.6508L1197.6 38.25ZM1197.6 13.75L1198.52 14.1508L1197.6 13.75ZM1202.35 6.75L1203.06 7.45711L1202.35 6.75ZM1250.85 1.99999L1250.45 2.91615L1250.85 1.99999ZM1263.6 25.25L1264.31 25.9571L1264.33 25.9299L1264.36 25.9008L1263.6 25.25ZM1249.98 25C1249.47 25 1249.03 24.8395 1248.63 24.4907L1247.32 26.0093C1248.08 26.6605 1248.98 27 1249.98 27V25ZM1248.73 24.5992C1248.39 24.1923 1248.23 23.755 1248.23 23.25H1246.23C1246.23 24.245 1246.57 25.1411 1247.22 25.9008L1248.73 24.5992ZM1248.23 23.25V22.375H1246.23V23.25H1248.23ZM1248.23 22.375C1248.23 20.7202 1247.68 19.2904 1246.56 18.1679L1245.14 19.5821C1245.85 20.2929 1246.23 21.1965 1246.23 22.375H1248.23ZM1246.59 18.1993C1245.47 16.9825 1244.03 16.375 1242.35 16.375V18.375C1243.5 18.375 1244.4 18.7675 1245.11 19.5507L1246.59 18.1993ZM1242.35 16.375H1217.85V18.375H1242.35V16.375ZM1217.85 16.375C1216.23 16.375 1214.82 16.993 1213.64 18.1679L1215.06 19.5821C1215.88 18.757 1216.8 18.375 1217.85 18.375V16.375ZM1213.64 18.1679C1212.52 19.2904 1211.98 20.7202 1211.98 22.375H1213.98C1213.98 21.1965 1214.35 20.2929 1215.06 19.5821L1213.64 18.1679ZM1211.98 22.375V29.625H1213.98V22.375H1211.98ZM1211.98 29.625C1211.98 31.2797 1212.52 32.7325 1213.61 33.9257L1215.09 32.5743C1214.35 31.7675 1213.98 30.8037 1213.98 29.625H1211.98ZM1213.67 33.9872C1214.86 35.0696 1216.26 35.625 1217.85 35.625V33.625C1216.77 33.625 1215.85 33.2637 1215.03 32.5128L1213.67 33.9872ZM1217.85 35.625H1242.35V33.625H1217.85V35.625ZM1242.35 35.625C1245.22 35.625 1247.91 36.1815 1250.45 37.2912L1251.25 35.4588C1248.45 34.2352 1245.48 33.625 1242.35 33.625V35.625ZM1250.45 37.2912C1253.01 38.4093 1255.23 39.9229 1257.14 41.8321L1258.56 40.4179C1256.47 38.3271 1254.03 36.674 1251.25 35.4588L1250.45 37.2912ZM1257.14 41.8321C1259.05 43.7414 1260.57 45.97 1261.68 48.5258L1263.52 47.7242C1262.3 44.9467 1260.65 42.5086 1258.56 40.4179L1257.14 41.8321ZM1261.68 48.5258C1262.79 51.0622 1263.35 53.7586 1263.35 56.625H1265.35C1265.35 53.4914 1264.74 50.5211 1263.52 47.7242L1261.68 48.5258ZM1263.35 56.625V63.875H1265.35V56.625H1263.35ZM1263.35 63.875C1263.35 66.8287 1262.79 69.5663 1261.68 72.0992L1263.52 72.9008C1264.74 70.1003 1265.35 67.088 1265.35 63.875H1263.35ZM1261.68 72.0992C1260.57 74.655 1259.05 76.8836 1257.14 78.7929L1258.56 80.2071C1260.65 78.1164 1262.3 75.6783 1263.52 72.9008L1261.68 72.0992ZM1257.14 78.7929C1255.23 80.7021 1253.01 82.2157 1250.45 83.3338L1251.25 85.1662C1254.03 83.951 1256.47 82.2979 1258.56 80.2071L1257.14 78.7929ZM1250.45 83.3338C1247.91 84.4435 1245.22 85 1242.35 85V87C1245.48 87 1248.45 86.3898 1251.25 85.1662L1250.45 83.3338ZM1242.35 85H1217.85V87H1242.35V85ZM1217.85 85C1214.98 85 1212.29 84.4435 1209.75 83.3338L1208.95 85.1662C1211.75 86.3898 1214.72 87 1217.85 87V85ZM1209.75 83.3338C1207.2 82.2157 1204.97 80.7021 1203.06 78.7929L1201.64 80.2071C1203.73 82.2979 1206.17 83.951 1208.95 85.1662L1209.75 83.3338ZM1203.06 78.7929C1201.15 76.8836 1199.63 74.655 1198.52 72.0992L1196.68 72.9008C1197.9 75.6783 1199.55 78.1164 1201.64 80.2071L1203.06 78.7929ZM1198.52 72.0992C1197.41 69.5663 1196.85 66.8287 1196.85 63.875H1194.85C1194.85 67.088 1195.46 70.1003 1196.68 72.9008L1198.52 72.0992ZM1196.85 63.875V63H1194.85V63.875H1196.85ZM1196.85 63C1196.85 62.4974 1197.01 62.1323 1197.31 61.8321L1195.89 60.4179C1195.19 61.1177 1194.85 62.0026 1194.85 63H1196.85ZM1197.31 61.8321C1197.72 61.4157 1198.14 61.25 1198.6 61.25V59.25C1197.56 59.25 1196.64 59.6676 1195.89 60.4179L1197.31 61.8321ZM1198.6 61.25H1210.23V59.25H1198.6V61.25ZM1210.23 61.25C1210.68 61.25 1211.03 61.4079 1211.34 61.7758L1212.86 60.4742C1212.18 59.6754 1211.28 59.25 1210.23 59.25V61.25ZM1211.45 61.8843C1211.82 62.1996 1211.98 62.55 1211.98 63H1213.98C1213.98 61.95 1213.55 61.0504 1212.75 60.3657L1211.45 61.8843ZM1211.98 63V63.875H1213.98V63H1211.98ZM1211.98 63.875C1211.98 65.5297 1212.52 66.9825 1213.61 68.1757L1215.09 66.8243C1214.35 66.0175 1213.98 65.0537 1213.98 63.875H1211.98ZM1213.67 68.2372C1214.86 69.3196 1216.26 69.875 1217.85 69.875V67.875C1216.77 67.875 1215.85 67.5137 1215.03 66.7628L1213.67 68.2372ZM1217.85 69.875H1242.35V67.875H1217.85V69.875ZM1242.35 69.875C1244.01 69.875 1245.44 69.3296 1246.56 68.2071L1245.14 66.7929C1244.43 67.5037 1243.53 67.875 1242.35 67.875V69.875ZM1246.59 68.1757C1247.68 66.9825 1248.23 65.5297 1248.23 63.875H1246.23C1246.23 65.0537 1245.85 66.0175 1245.11 66.8243L1246.59 68.1757ZM1248.23 63.875V56.625H1246.23V63.875H1248.23ZM1248.23 56.625C1248.23 54.9702 1247.68 53.5404 1246.56 52.4179L1245.14 53.8321C1245.85 54.5429 1246.23 55.4465 1246.23 56.625H1248.23ZM1246.56 52.4179C1245.44 51.2954 1244.01 50.75 1242.35 50.75V52.75C1243.53 52.75 1244.43 53.1213 1245.14 53.8321L1246.56 52.4179ZM1242.35 50.75H1217.85V52.75H1242.35V50.75ZM1217.85 50.75C1214.98 50.75 1212.29 50.1935 1209.75 49.0838L1208.95 50.9162C1211.75 52.1398 1214.72 52.75 1217.85 52.75V50.75ZM1209.75 49.0838C1207.2 47.9657 1204.97 46.4521 1203.06 44.5429L1201.64 45.9571C1203.73 48.0479 1206.17 49.701 1208.95 50.9162L1209.75 49.0838ZM1203.06 44.5429C1201.15 42.6336 1199.63 40.405 1198.52 37.8492L1196.68 38.6508C1197.9 41.4283 1199.55 43.8664 1201.64 45.9571L1203.06 44.5429ZM1198.52 37.8594C1197.41 35.2335 1196.85 32.4914 1196.85 29.625H1194.85C1194.85 32.7586 1195.46 35.7665 1196.68 38.6405L1198.52 37.8594ZM1196.85 29.625V22.375H1194.85V29.625H1196.85ZM1196.85 22.375C1196.85 19.4213 1197.41 16.6837 1198.52 14.1508L1196.68 13.3492C1195.46 16.1497 1194.85 19.162 1194.85 22.375H1196.85ZM1198.52 14.1508C1199.63 11.595 1201.15 9.36636 1203.06 7.45711L1201.64 6.04289C1199.55 8.13364 1197.9 10.5717 1196.68 13.3492L1198.52 14.1508ZM1203.06 7.45711C1204.97 5.54785 1207.2 4.03432 1209.75 2.91615L1208.95 1.08384C1206.17 2.299 1203.73 3.95214 1201.64 6.04289L1203.06 7.45711ZM1209.75 2.91615C1212.29 1.80649 1214.98 1.24999 1217.85 1.24999V-0.750006C1214.72 -0.750006 1211.75 -0.139839 1208.95 1.08384L1209.75 2.91615ZM1217.85 1.24999H1242.35V-0.750006H1217.85V1.24999ZM1242.35 1.24999C1245.22 1.24999 1247.91 1.80649 1250.45 2.91615L1251.25 1.08384C1248.45 -0.139839 1245.48 -0.750006 1242.35 -0.750006V1.24999ZM1250.45 2.91615C1253.01 4.03432 1255.23 5.54785 1257.14 7.45711L1258.56 6.04289C1256.47 3.95214 1254.03 2.299 1251.25 1.08384L1250.45 2.91615ZM1257.14 7.45711C1259.05 9.36636 1260.57 11.595 1261.68 14.1508L1263.52 13.3492C1262.3 10.5717 1260.65 8.13364 1258.56 6.04289L1257.14 7.45711ZM1261.68 14.1508C1262.79 16.6837 1263.35 19.4213 1263.35 22.375H1265.35C1265.35 19.162 1264.74 16.1497 1263.52 13.3492L1261.68 14.1508ZM1263.35 22.375V23.25H1265.35V22.375H1263.35ZM1263.35 23.25C1263.35 23.755 1263.19 24.1923 1262.84 24.5992L1264.36 25.9008C1265.01 25.141 1265.35 24.245 1265.35 23.25H1263.35ZM1262.89 24.5429C1262.59 24.8431 1262.23 25 1261.73 25V27C1262.72 27 1263.61 26.6569 1264.31 25.9571L1262.89 24.5429ZM1261.73 25H1249.98V27H1261.73V25Z" fill="black"/>
</svg>
